<svg width="26" height="26" viewBox="0 0 26 26" fill="none" xmlns="http://www.w3.org/2000/svg">
<path d="M10.5028 14.352C10.4248 14.352 8.70881 14.352 7.92881 14.352C7.51281 14.352 7.38281 14.196 7.38281 13.806C7.38281 12.766 7.38281 11.7 7.38281 10.66C7.38281 10.244 7.53881 10.114 7.92881 10.114H10.5028C10.5028 10.036 10.5028 8.52798 10.5028 7.82598C10.5028 6.78598 10.6848 5.79798 11.2048 4.88798C11.7508 3.95198 12.5308 3.32798 13.5188 2.96398C14.1688 2.72998 14.8188 2.62598 15.5208 2.62598H18.0688C18.4328 2.62598 18.5888 2.78198 18.5888 3.14598V6.10998C18.5888 6.47398 18.4328 6.62998 18.0688 6.62998C17.3668 6.62998 16.6648 6.62998 15.9628 6.65598C15.2608 6.65598 14.8968 6.99398 14.8968 7.72198C14.8708 8.50198 14.8968 9.25598 14.8968 10.062H17.9128C18.3288 10.062 18.4848 10.218 18.4848 10.634V13.78C18.4848 14.196 18.3548 14.326 17.9128 14.326C16.9768 14.326 14.9748 14.326 14.8968 14.326V22.802C14.8968 23.244 14.7668 23.4 14.2988 23.4C13.2068 23.4 12.1408 23.4 11.0488 23.4C10.6588 23.4 10.5028 23.244 10.5028 22.854C10.5028 20.124 10.5028 14.43 10.5028 14.352Z" fill="#F3F3F3"/>
</svg>
