<svg width="26" height="26" viewBox="0 0 26 26" fill="none" xmlns="http://www.w3.org/2000/svg">
<path d="M23.4029 23.3997V15.7817C23.4029 12.0377 22.5969 9.17773 18.2289 9.17773C16.1229 9.17773 14.7189 10.3217 14.1469 11.4137H14.0949V9.51573H9.96094V23.3997H14.2769V16.5097C14.2769 14.6897 14.6149 12.9477 16.8509 12.9477C19.0609 12.9477 19.0869 15.0017 19.0869 16.6137V23.3737H23.4029V23.3997Z" fill="#F3F3F3"/>
<path d="M2.9375 9.51562H7.2535V23.3996H2.9375V9.51562Z" fill="#F3F3F3"/>
<path d="M5.09756 2.59961C3.71956 2.59961 2.60156 3.71761 2.60156 5.09561C2.60156 6.47361 3.71956 7.61761 5.09756 7.61761C6.47556 7.61761 7.59356 6.47361 7.59356 5.09561C7.59356 3.71761 6.47556 2.59961 5.09756 2.59961Z" fill="#F3F3F3"/>
</svg>
