<svg width="14" height="17" viewBox="0 0 14 17" fill="none" xmlns="http://www.w3.org/2000/svg">
<g clip-path="url(#clip0_1110_9632)">
<path d="M2.35418 1.1771C2.35418 1.4099 2.28515 1.63748 2.1558 1.83105C2.02647 2.02463 1.84263 2.17548 1.62755 2.26457C1.41246 2.35366 1.17579 2.37699 0.947454 2.33157C0.719119 2.28615 0.509381 2.17404 0.344762 2.00943C0.180144 1.8448 0.0680365 1.63508 0.0226183 1.40674C-0.0228 1.17841 0.000509116 0.941731 0.0896 0.726649C0.178691 0.511564 0.329562 0.32771 0.523134 0.198369C0.716705 0.0690291 0.944283 0 1.1771 0C1.33167 0 1.48473 0.0304442 1.62755 0.0895984C1.77036 0.148752 1.90011 0.235463 2.00942 0.344766C2.11872 0.454069 2.20543 0.583838 2.26458 0.726649C2.32374 0.869458 2.35418 1.02252 2.35418 1.1771Z" fill="white"/>
<path d="M6.44598 1.1771C6.44598 1.4099 6.37694 1.63748 6.2476 1.83105C6.11826 2.02463 5.93442 2.17548 5.71934 2.26457C5.50425 2.35366 5.26758 2.37699 5.03925 2.33157C4.81092 2.28615 4.60117 2.17404 4.43656 2.00943C4.27194 1.8448 4.15984 1.63508 4.11442 1.40674C4.06899 1.17841 4.09231 0.941731 4.1814 0.726649C4.27049 0.511564 4.42136 0.32771 4.61493 0.198369C4.80851 0.0690291 5.03608 0 5.26888 0C5.58107 0 5.88047 0.124019 6.10122 0.344766C6.32196 0.565513 6.44598 0.864912 6.44598 1.1771Z" fill="white"/>
<path d="M3.53182 4.70671C4.18191 4.70671 4.70891 4.17971 4.70891 3.52963C4.70891 2.87954 4.18191 2.35254 3.53182 2.35254C2.88174 2.35254 2.35474 2.87954 2.35474 3.52963C2.35474 4.17971 2.88174 4.70671 3.53182 4.70671Z" fill="white"/>
<path d="M7.63021 4.70671C8.28034 4.70671 8.80732 4.17971 8.80732 3.52963C8.80732 2.87954 8.28034 2.35254 7.63021 2.35254C6.98013 2.35254 6.45312 2.87954 6.45312 3.52963C6.45312 4.17971 6.98013 4.70671 7.63021 4.70671Z" fill="white"/>
<path d="M7.06366 5.87729C7.06366 6.11009 6.99462 6.33768 6.86529 6.53125C6.73594 6.72482 6.55211 6.8757 6.33702 6.96479C6.12193 7.05388 5.88526 7.07718 5.65693 7.03176C5.42859 6.98635 5.21885 6.87424 5.05424 6.70962C4.88961 6.545 4.77751 6.33527 4.73209 6.10693C4.68667 5.8786 4.70999 5.64193 4.79908 5.42684C4.88817 5.21176 5.03904 5.02793 5.23261 4.89858C5.42618 4.76924 5.65376 4.7002 5.88657 4.7002C6.19875 4.7002 6.49815 4.82421 6.71889 5.04496C6.93964 5.2657 7.06366 5.56511 7.06366 5.87729Z" fill="white"/>
<path d="M11.1557 5.87729C11.1557 6.11009 11.0866 6.33768 10.9573 6.53125C10.828 6.72482 10.6442 6.8757 10.4291 6.96479C10.2139 7.05388 9.97727 7.07718 9.74898 7.03176C9.52062 6.98635 9.31087 6.87424 9.14624 6.70962C8.98162 6.545 8.86954 6.33527 8.82416 6.10693C8.7787 5.8786 8.80201 5.64193 8.89111 5.42684C8.98022 5.21176 9.13109 5.02793 9.32462 4.89858C9.51823 4.76924 9.74577 4.7002 9.97858 4.7002C10.2908 4.7002 10.5902 4.82421 10.8109 5.04496C11.0317 5.2657 11.1557 5.56511 11.1557 5.87729Z" fill="white"/>
<path d="M2.35418 15.295C2.35452 15.0621 2.28578 14.8343 2.15664 14.6406C2.02751 14.4468 1.8438 14.2957 1.62874 14.2062C1.41369 14.1169 1.17696 14.0934 0.948508 14.1386C0.720064 14.1838 0.510164 14.2958 0.345372 14.4604C0.180579 14.6249 0.0683052 14.8346 0.0227462 15.063C-0.0228127 15.2914 0.000391953 15.5282 0.089432 15.7434C0.178472 15.9586 0.329341 16.1424 0.522949 16.2719C0.716559 16.4013 0.944209 16.4704 1.17709 16.4704C1.48897 16.4704 1.7881 16.3466 2.0088 16.1262C2.2295 15.9058 2.35372 15.6069 2.35418 15.295Z" fill="white"/>
<path d="M6.44598 15.295C6.44632 15.0621 6.37758 14.8343 6.24844 14.6406C6.11931 14.4468 5.9356 14.2957 5.72054 14.2062C5.50549 14.1169 5.26876 14.0934 5.04031 14.1386C4.81187 14.1838 4.60196 14.2958 4.43717 14.4604C4.27238 14.6249 4.1601 14.8346 4.11454 15.063C4.06898 15.2914 4.09219 15.5282 4.18123 15.7434C4.27027 15.9586 4.42114 16.1424 4.61475 16.2719C4.80836 16.4013 5.03601 16.4704 5.26888 16.4704C5.58077 16.4704 5.8799 16.3466 6.1006 16.1262C6.3213 15.9058 6.44552 15.6069 6.44598 15.295Z" fill="white"/>
<path d="M3.53182 14.1178C4.18191 14.1178 4.70891 13.5908 4.70891 12.9407C4.70891 12.2906 4.18191 11.7637 3.53182 11.7637C2.88174 11.7637 2.35474 12.2906 2.35474 12.9407C2.35474 13.5908 2.88174 14.1178 3.53182 14.1178Z" fill="white"/>
<path d="M7.63021 14.1178C8.28034 14.1178 8.80732 13.5908 8.80732 12.9407C8.80732 12.2906 8.28034 11.7637 7.63021 11.7637C6.98013 11.7637 6.45312 12.2906 6.45312 12.9407C6.45312 13.5908 6.98013 14.1178 7.63021 14.1178Z" fill="white"/>
<path d="M7.06366 10.5883C7.06366 10.3555 6.99462 10.1279 6.86529 9.93432C6.73594 9.74071 6.55211 9.58984 6.33702 9.50073C6.12193 9.41163 5.88526 9.38832 5.65693 9.43378C5.42859 9.47916 5.21885 9.59132 5.05424 9.75594C4.88961 9.92057 4.77751 10.1302 4.73209 10.3586C4.68667 10.587 4.70999 10.8236 4.79908 11.0387C4.88817 11.2538 5.03904 11.4376 5.23261 11.567C5.42618 11.6963 5.65376 11.7654 5.88657 11.7654C6.19875 11.7654 6.49815 11.6413 6.71889 11.4205C6.93964 11.1998 7.06366 10.9004 7.06366 10.5883Z" fill="white"/>
<path d="M11.1557 10.5883C11.1557 10.3555 11.0866 10.1279 10.9573 9.93432C10.828 9.74071 10.6442 9.58984 10.4291 9.50073C10.2139 9.41163 9.97727 9.38832 9.74898 9.43378C9.52062 9.47916 9.31087 9.59132 9.14624 9.75594C8.98162 9.92057 8.86954 10.1302 8.82416 10.3586C8.7787 10.587 8.80201 10.8236 8.89111 11.0387C8.98022 11.2538 9.13109 11.4376 9.32462 11.567C9.51823 11.6963 9.74577 11.7654 9.97858 11.7654C10.2908 11.7654 10.5902 11.6413 10.8109 11.4205C11.0317 11.1998 11.1557 10.9004 11.1557 10.5883Z" fill="white"/>
<path d="M8.23496 9.41177C8.88502 9.41177 9.41208 8.8848 9.41208 8.2347C9.41208 7.58462 8.88502 7.05762 8.23496 7.05762C7.58486 7.05762 7.05786 7.58462 7.05786 8.2347C7.05786 8.8848 7.58486 9.41177 8.23496 9.41177Z" fill="white"/>
<path d="M12.3333 9.41177C12.9834 9.41177 13.5104 8.8848 13.5104 8.2347C13.5104 7.58462 12.9834 7.05762 12.3333 7.05762C11.6832 7.05762 11.1562 7.58462 11.1562 8.2347C11.1562 8.8848 11.6832 9.41177 12.3333 9.41177Z" fill="white"/>
</g>
<defs>
<clipPath id="clip0_1110_9632">
<rect width="14" height="16.4706" fill="white"/>
</clipPath>
</defs>
</svg>
