<svg width="12" height="15" viewBox="0 0 12 15" fill="none" xmlns="http://www.w3.org/2000/svg">
<g clip-path="url(#clip0_1110_9809)">
<path d="M1.76899 1.072C1.76899 1.28401 1.70612 1.49128 1.58832 1.66756C1.47053 1.84386 1.30311 1.98125 1.10723 2.06238C0.911348 2.14352 0.695805 2.16476 0.48786 2.12339C0.279912 2.08203 0.0889005 1.97993 -0.06102 1.83002C-0.210941 1.68009 -0.313038 1.48909 -0.354401 1.28114C-0.395764 1.0732 -0.374536 0.857647 -0.2934 0.66177C-0.212263 0.465889 -0.0748627 0.29845 0.101425 0.180658C0.277714 0.0628658 0.484972 0 0.696998 0C0.837772 0 0.977167 0.027726 1.10723 0.0815985C1.23729 0.135471 1.35546 0.214439 1.45501 0.313983C1.55455 0.413527 1.63352 0.531709 1.68739 0.66177C1.74126 0.791827 1.76899 0.931222 1.76899 1.072Z" fill="white"/>
<path d="M5.49555 1.072C5.49555 1.28401 5.43268 1.49128 5.31488 1.66756C5.1971 1.84386 5.02966 1.98125 4.83379 2.06238C4.6379 2.14352 4.42237 2.16476 4.21442 2.12339C4.00648 2.08203 3.81546 1.97993 3.66554 1.83002C3.51563 1.68009 3.41353 1.48909 3.37217 1.28114C3.3308 1.0732 3.35203 0.857647 3.43316 0.66177C3.5143 0.465889 3.6517 0.29845 3.82799 0.180658C4.00428 0.0628658 4.21153 0 4.42355 0C4.70786 0 4.98053 0.112946 5.18157 0.313983C5.38261 0.51502 5.49555 0.787687 5.49555 1.072Z" fill="white"/>
<path d="M2.84152 4.28656C3.43356 4.28656 3.91351 3.80661 3.91351 3.21457C3.91351 2.62253 3.43356 2.14258 2.84152 2.14258C2.24948 2.14258 1.76953 2.62253 1.76953 3.21457C1.76953 3.80661 2.24948 4.28656 2.84152 4.28656Z" fill="white"/>
<path d="M6.57394 4.28656C7.16602 4.28656 7.64595 3.80661 7.64595 3.21457C7.64595 2.62253 7.16602 2.14258 6.57394 2.14258C5.9819 2.14258 5.50195 2.62253 5.50195 3.21457C5.50195 3.80661 5.9819 4.28656 6.57394 4.28656Z" fill="white"/>
<path d="M6.05805 5.35227C6.05805 5.56429 5.99518 5.77155 5.87739 5.94784C5.7596 6.12413 5.59217 6.26153 5.39629 6.34267C5.20041 6.4238 4.98487 6.44503 4.77692 6.40367C4.56897 6.3623 4.37796 6.26021 4.22804 6.11029C4.07812 5.96036 3.97602 5.76936 3.93466 5.56141C3.8933 5.35346 3.91453 5.13792 3.99567 4.94204C4.07681 4.74616 4.21421 4.57874 4.39049 4.46095C4.56678 4.34315 4.77404 4.28027 4.98606 4.28027C5.27037 4.28027 5.54303 4.39322 5.74407 4.59425C5.94511 4.79529 6.05805 5.06796 6.05805 5.35227Z" fill="white"/>
<path d="M9.78465 5.35227C9.78465 5.56429 9.72172 5.77155 9.60397 5.94784C9.48615 6.12413 9.31875 6.26153 9.12285 6.34267C8.92695 6.4238 8.7114 6.44503 8.5035 6.40367C8.29553 6.3623 8.1045 6.26021 7.95458 6.11029C7.80465 5.96036 7.70258 5.76936 7.66125 5.56141C7.61985 5.35346 7.64107 5.13792 7.72222 4.94204C7.80337 4.74616 7.94077 4.57874 8.11702 4.46095C8.29335 4.34315 8.50058 4.28027 8.7126 4.28027C8.99693 4.28027 9.26962 4.39322 9.47062 4.59425C9.6717 4.79529 9.78465 5.06796 9.78465 5.35227Z" fill="white"/>
<path d="M1.76899 13.93C1.76929 13.7179 1.70669 13.5105 1.58908 13.334C1.47148 13.1575 1.30417 13.0199 1.10832 12.9384C0.912465 12.8571 0.69687 12.8357 0.48882 12.8769C0.280772 12.918 0.0896138 13.02 -0.060465 13.1699C-0.210544 13.3197 -0.312793 13.5107 -0.354285 13.7187C-0.395776 13.9267 -0.374643 14.1423 -0.293553 14.3383C-0.212463 14.5343 -0.0750645 14.7018 0.101258 14.8197C0.27758 14.9375 0.484905 15.0004 0.69699 15.0004C0.98103 15.0004 1.25345 14.8877 1.45445 14.687C1.65544 14.4863 1.76857 14.214 1.76899 13.93Z" fill="white"/>
<path d="M5.49555 13.93C5.49586 13.7179 5.43325 13.5105 5.31565 13.334C5.19805 13.1575 5.03074 13.0199 4.83488 12.9384C4.63903 12.8571 4.42344 12.8357 4.21539 12.8769C4.00734 12.918 3.81618 13.02 3.6661 13.1699C3.51602 13.3197 3.41377 13.5107 3.37228 13.7187C3.33079 13.9267 3.35192 14.1423 3.43301 14.3383C3.5141 14.5343 3.6515 14.7018 3.82783 14.8197C4.00414 14.9375 4.21147 15.0004 4.42355 15.0004C4.70759 15.0004 4.98001 14.8877 5.18101 14.687C5.382 14.4863 5.49513 14.214 5.49555 13.93Z" fill="white"/>
<path d="M2.84152 12.8578C3.43356 12.8578 3.91351 12.3779 3.91351 11.7858C3.91351 11.1938 3.43356 10.7139 2.84152 10.7139C2.24948 10.7139 1.76953 11.1938 1.76953 11.7858C1.76953 12.3779 2.24948 12.8578 2.84152 12.8578Z" fill="white"/>
<path d="M6.57394 12.8578C7.16602 12.8578 7.64595 12.3779 7.64595 11.7858C7.64595 11.1938 7.16602 10.7139 6.57394 10.7139C5.9819 10.7139 5.50195 11.1938 5.50195 11.7858C5.50195 12.3779 5.9819 12.8578 6.57394 12.8578Z" fill="white"/>
<path d="M6.05805 9.64334C6.05805 9.43131 5.99518 9.22401 5.87739 9.04776C5.7596 8.87144 5.59217 8.73404 5.39629 8.65289C5.20041 8.57174 4.98487 8.55051 4.77692 8.59191C4.56897 8.63324 4.37796 8.73539 4.22804 8.88531C4.07812 9.03524 3.97602 9.22619 3.93466 9.43416C3.8933 9.64214 3.91453 9.85761 3.99567 10.0535C4.07681 10.2494 4.21421 10.4168 4.39049 10.5346C4.56678 10.6524 4.77404 10.7153 4.98606 10.7153C5.27037 10.7153 5.54303 10.6024 5.74407 10.4013C5.94511 10.2003 6.05805 9.92759 6.05805 9.64334Z" fill="white"/>
<path d="M9.78465 9.64334C9.78465 9.43131 9.72172 9.22401 9.60397 9.04776C9.48615 8.87144 9.31875 8.73404 9.12285 8.65289C8.92695 8.57174 8.7114 8.55051 8.5035 8.59191C8.29553 8.63324 8.1045 8.73539 7.95458 8.88531C7.80465 9.03524 7.70258 9.22619 7.66125 9.43416C7.61985 9.64214 7.64107 9.85761 7.72222 10.0535C7.80337 10.2494 7.94077 10.4168 8.11702 10.5346C8.29335 10.6524 8.50058 10.7153 8.7126 10.7153C8.99693 10.7153 9.26962 10.6024 9.47062 10.4013C9.6717 10.2003 9.78465 9.92759 9.78465 9.64334Z" fill="white"/>
<path d="M7.12473 8.57072C7.71675 8.57072 8.19675 8.0908 8.19675 7.49875C8.19675 6.90671 7.71675 6.42676 7.12473 6.42676C6.53268 6.42676 6.05273 6.90671 6.05273 7.49875C6.05273 8.0908 6.53268 8.57072 7.12473 8.57072Z" fill="white"/>
<path d="M10.8571 8.57072C11.4492 8.57072 11.9291 8.0908 11.9291 7.49875C11.9291 6.90671 11.4492 6.42676 10.8571 6.42676C10.2651 6.42676 9.78516 6.90671 9.78516 7.49875C9.78516 8.0908 10.2651 8.57072 10.8571 8.57072Z" fill="white"/>
</g>
<defs>
<clipPath id="clip0_1110_9809">
<rect width="12.75" height="15" fill="white" transform="translate(-0.375)"/>
</clipPath>
</defs>
</svg>
