<svg width="12" height="14" viewBox="0 0 12 14" fill="none" xmlns="http://www.w3.org/2000/svg">
<g clip-path="url(#clip0_1110_4032)">
<path d="M1.89573 1.31627C1.89573 1.50375 1.84014 1.68701 1.73599 1.84289C1.63183 1.99876 1.4838 2.12024 1.3106 2.19198C1.1374 2.26372 0.946813 2.2825 0.762948 2.24593C0.579078 2.20936 0.410185 2.11909 0.277624 1.98652C0.145062 1.85396 0.0547871 1.68507 0.0182136 1.5012C-0.0183599 1.31734 0.000409953 1.12675 0.0721516 0.953549C0.143893 0.780354 0.265384 0.6323 0.421259 0.528147C0.577135 0.423995 0.760399 0.368408 0.947866 0.368408C1.07234 0.368408 1.1956 0.392924 1.3106 0.440558C1.4256 0.488193 1.53009 0.558018 1.61811 0.646035C1.70612 0.734052 1.77594 0.83855 1.82358 0.953549C1.87121 1.06855 1.89573 1.1918 1.89573 1.31627Z" fill="#9550C9"/>
<path d="M5.19431 1.31627C5.19431 1.50375 5.13872 1.68701 5.03457 1.84289C4.93041 1.99876 4.78237 2.12024 4.60918 2.19198C4.43598 2.26372 4.24539 2.2825 4.06153 2.24593C3.87766 2.20936 3.70877 2.11909 3.57621 1.98652C3.44364 1.85396 3.35337 1.68507 3.3168 1.5012C3.28023 1.31734 3.29899 1.12675 3.37073 0.953549C3.44248 0.780354 3.56397 0.6323 3.71984 0.528147C3.87572 0.423995 4.05897 0.368408 4.24645 0.368408C4.49784 0.368408 4.73893 0.468275 4.91669 0.646035C5.09445 0.823791 5.19431 1.06489 5.19431 1.31627Z" fill="#9550C9"/>
<path d="M2.84752 4.15843C3.37101 4.15843 3.79539 3.73405 3.79539 3.21056C3.79539 2.68707 3.37101 2.2627 2.84752 2.2627C2.32404 2.2627 1.89966 2.68707 1.89966 3.21056C1.89966 3.73405 2.32404 4.15843 2.84752 4.15843Z" fill="#9550C9"/>
<path d="M6.14024 4.15843C6.66373 4.15843 7.08811 3.73405 7.08811 3.21056C7.08811 2.68707 6.66373 2.2627 6.14024 2.2627C5.61675 2.2627 5.19238 2.68707 5.19238 3.21056C5.19238 3.73405 5.61675 4.15843 6.14024 4.15843Z" fill="#9550C9"/>
<path d="M5.68944 5.10095C5.68944 5.28842 5.63384 5.47168 5.52969 5.62756C5.42554 5.78343 5.2775 5.90493 5.1043 5.97666C4.9311 6.04841 4.74052 6.06717 4.55664 6.0306C4.37278 5.99402 4.20389 5.90375 4.07132 5.77119C3.93877 5.63863 3.84849 5.46974 3.81191 5.28588C3.77534 5.102 3.79412 4.91142 3.86585 4.73822C3.9376 4.56502 4.05909 4.41698 4.21496 4.31283C4.37084 4.20868 4.5541 4.15308 4.74157 4.15308C4.99296 4.15308 5.23405 4.25294 5.41181 4.4307C5.58957 4.60846 5.68944 4.84955 5.68944 5.10095Z" fill="#9550C9"/>
<path d="M8.98218 5.10095C8.98218 5.28842 8.92655 5.47168 8.82244 5.62756C8.71825 5.78343 8.57021 5.90493 8.39706 5.97666C8.22382 6.04841 8.0332 6.06717 7.84936 6.0306C7.66552 5.99402 7.49664 5.90375 7.36405 5.77119C7.23149 5.63863 7.14121 5.46974 7.10464 5.28588C7.06807 5.102 7.08684 4.91142 7.15858 4.73822C7.23033 4.56502 7.35181 4.41698 7.50769 4.31283C7.66353 4.20868 7.84686 4.15308 8.03431 4.15308C8.28565 4.15308 8.52674 4.25294 8.70454 4.4307C8.88227 4.60846 8.98218 4.84955 8.98218 5.10095Z" fill="#9550C9"/>
<path d="M1.89573 12.6851C1.89601 12.4976 1.84065 12.3142 1.73666 12.1581C1.63268 12.002 1.48474 11.8804 1.31156 11.8084C1.13838 11.7364 0.947756 11.7175 0.763796 11.7539C0.579839 11.7904 0.410815 11.8805 0.278114 12.013C0.145414 12.1455 0.0550035 12.3144 0.0183166 12.4983C-0.0183702 12.6822 0.00031562 12.8728 0.0720161 13.0462C0.143717 13.2194 0.265206 13.3676 0.421111 13.4718C0.577017 13.5759 0.760333 13.6316 0.947866 13.6316C1.19901 13.6316 1.43989 13.5319 1.61761 13.3544C1.79533 13.177 1.89536 12.9363 1.89573 12.6851Z" fill="#9550C9"/>
<path d="M5.19431 12.6851C5.19459 12.4976 5.13923 12.3142 5.03524 12.1581C4.93126 12.002 4.78333 11.8804 4.61015 11.8084C4.43697 11.7364 4.24634 11.7175 4.06238 11.7539C3.87842 11.7904 3.7094 11.8805 3.5767 12.013C3.444 12.1455 3.35359 12.3144 3.3169 12.4983C3.28021 12.6822 3.29891 12.8728 3.3706 13.0462C3.4423 13.2194 3.56379 13.3676 3.71969 13.4718C3.8756 13.5759 4.05891 13.6316 4.24645 13.6316C4.49759 13.6316 4.73847 13.5319 4.91619 13.3544C5.09391 13.177 5.19394 12.9363 5.19431 12.6851Z" fill="#9550C9"/>
<path d="M2.84752 11.7371C3.37101 11.7371 3.79539 11.3126 3.79539 10.7892C3.79539 10.2657 3.37101 9.84131 2.84752 9.84131C2.32404 9.84131 1.89966 10.2657 1.89966 10.7892C1.89966 11.3126 2.32404 11.7371 2.84752 11.7371Z" fill="#9550C9"/>
<path d="M6.14024 11.7371C6.66373 11.7371 7.08811 11.3126 7.08811 10.7892C7.08811 10.2657 6.66373 9.84131 6.14024 9.84131C5.61675 9.84131 5.19238 10.2657 5.19238 10.7892C5.19238 11.3126 5.61675 11.7371 6.14024 11.7371Z" fill="#9550C9"/>
<path d="M5.68944 8.89513C5.68944 8.70768 5.63384 8.52443 5.52969 8.36851C5.42554 8.21267 5.2775 8.09116 5.1043 8.01939C4.9311 7.9477 4.74052 7.92891 4.55664 7.96546C4.37278 8.00208 4.20389 8.09234 4.07132 8.2249C3.93877 8.35746 3.84849 8.52634 3.81191 8.71018C3.77534 8.8941 3.79412 9.08465 3.86585 9.25788C3.9376 9.43104 4.05909 9.57907 4.21496 9.68326C4.37084 9.78737 4.5541 9.84301 4.74157 9.84301C4.99296 9.84301 5.23405 9.74309 5.41181 9.56536C5.58957 9.38756 5.68944 9.14654 5.68944 8.89513Z" fill="#9550C9"/>
<path d="M8.98218 8.89513C8.98218 8.70768 8.92655 8.52443 8.82244 8.36851C8.71825 8.21267 8.57021 8.09116 8.39706 8.01939C8.22382 7.9477 8.0332 7.92891 7.84936 7.96546C7.66552 8.00208 7.49664 8.09234 7.36405 8.2249C7.23149 8.35746 7.14121 8.52634 7.10464 8.71018C7.06807 8.8941 7.08684 9.08465 7.15858 9.25788C7.23033 9.43104 7.35181 9.57907 7.50769 9.68326C7.66353 9.78737 7.84686 9.84301 8.03431 9.84301C8.28565 9.84301 8.52674 9.74309 8.70454 9.56536C8.88227 9.38756 8.98218 9.14654 8.98218 8.89513Z" fill="#9550C9"/>
<path d="M6.63537 7.94722C7.15886 7.94722 7.58321 7.52288 7.58321 6.99937C7.58321 6.47588 7.15886 6.05151 6.63537 6.05151C6.11188 6.05151 5.6875 6.47588 5.6875 6.99937C5.6875 7.52288 6.11188 7.94722 6.63537 7.94722Z" fill="#9550C9"/>
<path d="M9.9281 7.94722C10.4516 7.94722 10.876 7.52288 10.876 6.99937C10.876 6.47588 10.4516 6.05151 9.9281 6.05151C9.40457 6.05151 8.98022 6.47588 8.98022 6.99937C8.98022 7.52288 9.40457 7.94722 9.9281 7.94722Z" fill="#9550C9"/>
</g>
<defs>
<clipPath id="clip0_1110_4032">
<rect width="11.0526" height="14" fill="white"/>
</clipPath>
</defs>
</svg>
