<svg width="12" height="14" viewBox="0 0 12 14" fill="none" xmlns="http://www.w3.org/2000/svg">
<g clip-path="url(#clip0_1110_9900)">
<path d="M2.00106 1.00053C2.00106 1.19841 1.94237 1.39186 1.83243 1.55639C1.7225 1.72094 1.56624 1.84916 1.38342 1.92489C1.20059 2.00061 0.999418 2.02044 0.805336 1.98183C0.611251 1.94323 0.432974 1.84794 0.293048 1.70801C0.153122 1.56808 0.0578311 1.38981 0.0192256 1.19573C-0.01938 1.00165 0.000432748 0.800471 0.07616 0.617652C0.151887 0.434829 0.280128 0.278553 0.444664 0.168614C0.609199 0.0586748 0.802641 0 1.00053 0C1.13192 0 1.26202 0.0258776 1.38342 0.0761586C1.5048 0.12644 1.6151 0.200143 1.70801 0.293051C1.80091 0.385958 1.87461 0.496262 1.9249 0.617652C1.97518 0.739039 2.00106 0.869141 2.00106 1.00053Z" fill="white"/>
<path d="M5.47908 1.00053C5.47908 1.19841 5.4204 1.39186 5.31046 1.55639C5.20052 1.72094 5.04426 1.84916 4.86144 1.92489C4.67861 2.00061 4.47745 2.02044 4.28336 1.98183C4.08928 1.94323 3.911 1.84794 3.77108 1.70801C3.63115 1.56808 3.53586 1.38981 3.49726 1.19573C3.45864 1.00165 3.47846 0.800471 3.55419 0.617652C3.62991 0.434829 3.75815 0.278553 3.92269 0.168614C4.08723 0.0586748 4.28067 0 4.47855 0C4.74391 0 4.9984 0.105416 5.18603 0.293051C5.37367 0.480686 5.47908 0.735175 5.47908 1.00053Z" fill="white"/>
<path d="M3.00199 4.00056C3.55456 4.00056 4.00251 3.55261 4.00251 3.00004C4.00251 2.44746 3.55456 1.99951 3.00199 1.99951C2.44942 1.99951 2.00146 2.44746 2.00146 3.00004C2.00146 3.55261 2.44942 4.00056 3.00199 4.00056Z" fill="white"/>
<path d="M6.48563 4.00056C7.03824 4.00056 7.48617 3.55261 7.48617 3.00004C7.48617 2.44746 7.03824 1.99951 6.48563 1.99951C5.93306 1.99951 5.48511 2.44746 5.48511 3.00004C5.48511 3.55261 5.93306 4.00056 6.48563 4.00056Z" fill="white"/>
<path d="M6.00423 4.99528C6.00423 5.19316 5.94555 5.38661 5.83561 5.55115C5.72567 5.71568 5.56941 5.84393 5.38659 5.91965C5.20377 5.99538 5.00259 6.01519 4.80851 5.97658C4.61442 5.93798 4.43615 5.84269 4.29622 5.70276C4.15629 5.56283 4.061 5.38457 4.0224 5.19048C3.98379 4.99639 4.00361 4.79522 4.07934 4.6124C4.15507 4.42958 4.28331 4.27332 4.44784 4.16338C4.61238 4.05344 4.80582 3.99475 5.00371 3.99475C5.26906 3.99475 5.52355 4.10016 5.71118 4.2878C5.89882 4.47543 6.00423 4.72993 6.00423 4.99528Z" fill="white"/>
<path d="M9.48229 4.99528C9.48229 5.19316 9.42356 5.38661 9.31366 5.55115C9.20369 5.71568 9.04745 5.84393 8.86461 5.91965C8.68177 5.99538 8.48059 6.01519 8.28655 5.97658C8.09244 5.93798 7.91415 5.84269 7.77422 5.70276C7.63429 5.56283 7.53902 5.38457 7.50045 5.19048C7.46181 4.99639 7.48162 4.79522 7.55736 4.6124C7.6331 4.42958 7.76134 4.27332 7.92584 4.16338C8.09041 4.05344 8.28382 3.99475 8.48171 3.99475C8.74708 3.99475 9.0016 4.10016 9.1892 4.2878C9.37687 4.47543 9.48229 4.72993 9.48229 4.99528Z" fill="white"/>
<path d="M2.00106 13.001C2.00134 12.803 1.94291 12.6094 1.83315 12.4447C1.72339 12.28 1.56723 12.1515 1.38443 12.0755C1.20163 11.9995 1.00041 11.9796 0.806232 12.018C0.612054 12.0565 0.433639 12.1516 0.293566 12.2915C0.153493 12.4314 0.0580594 12.6096 0.0193343 12.8038C-0.0193908 12.9979 0.00033316 13.1991 0.0760172 13.382C0.151701 13.565 0.27994 13.7213 0.444507 13.8313C0.609075 13.9413 0.802578 14 1.00052 14C1.26563 14 1.51989 13.8948 1.70748 13.7075C1.89507 13.5202 2.00066 13.2661 2.00106 13.001Z" fill="white"/>
<path d="M5.47908 13.001C5.47937 12.803 5.42094 12.6094 5.31117 12.4447C5.20141 12.28 5.04526 12.1515 4.86246 12.0755C4.67967 11.9995 4.47845 11.9796 4.28427 12.018C4.09009 12.0565 3.91167 12.1516 3.77159 12.2915C3.63152 12.4314 3.53608 12.6096 3.49736 12.8038C3.45864 12.9979 3.47836 13.1991 3.55405 13.382C3.62973 13.565 3.75797 13.7213 3.92254 13.8313C4.0871 13.9413 4.2806 14 4.47855 14C4.74365 14 4.99792 13.8948 5.18551 13.7075C5.3731 13.5202 5.47869 13.2661 5.47908 13.001Z" fill="white"/>
<path d="M3.00199 12.0003C3.55456 12.0003 4.00251 11.5524 4.00251 10.9998C4.00251 10.4472 3.55456 9.99927 3.00199 9.99927C2.44942 9.99927 2.00146 10.4472 2.00146 10.9998C2.00146 11.5524 2.44942 12.0003 3.00199 12.0003Z" fill="white"/>
<path d="M6.48563 12.0003C7.03824 12.0003 7.48617 11.5524 7.48617 10.9998C7.48617 10.4472 7.03824 9.99927 6.48563 9.99927C5.93306 9.99927 5.48511 10.4472 5.48511 10.9998C5.48511 11.5524 5.93306 12.0003 6.48563 12.0003Z" fill="white"/>
<path d="M6.00423 9.00034C6.00423 8.80245 5.94555 8.60897 5.83561 8.44447C5.72567 8.2799 5.56941 8.15166 5.38659 8.07592C5.20377 8.00018 5.00259 7.98037 4.80851 8.01901C4.61442 8.05758 4.43615 8.15292 4.29622 8.29285C4.15629 8.43278 4.061 8.611 4.0224 8.80511C3.98379 8.99922 4.00361 9.20033 4.07934 9.38317C4.15507 9.56601 4.28331 9.72225 4.44784 9.83222C4.61238 9.94212 4.80582 10.0008 5.00371 10.0008C5.26906 10.0008 5.52355 9.89543 5.71118 9.70776C5.89882 9.52016 6.00423 9.26564 6.00423 9.00034Z" fill="white"/>
<path d="M9.48229 9.00034C9.48229 8.80245 9.42356 8.60897 9.31366 8.44447C9.20369 8.2799 9.04745 8.15166 8.86461 8.07592C8.68177 8.00018 8.48059 7.98037 8.28655 8.01901C8.09244 8.05758 7.91415 8.15292 7.77422 8.29285C7.63429 8.43278 7.53902 8.611 7.50045 8.80511C7.46181 8.99922 7.48162 9.20033 7.55736 9.38317C7.6331 9.56601 7.76134 9.72225 7.92584 9.83222C8.09041 9.94212 8.28382 10.0008 8.48171 10.0008C8.74708 10.0008 9.0016 9.89543 9.1892 9.70776C9.37687 9.52016 9.48229 9.26564 9.48229 9.00034Z" fill="white"/>
<path d="M6.9998 7.99975C7.55235 7.99975 8.00035 7.55182 8.00035 6.99924C8.00035 6.44667 7.55235 5.99872 6.9998 5.99872C6.44722 5.99872 5.99927 6.44667 5.99927 6.99924C5.99927 7.55182 6.44722 7.99975 6.9998 7.99975Z" fill="white"/>
<path d="M10.4834 7.99975C11.036 7.99975 11.4839 7.55182 11.4839 6.99924C11.4839 6.44667 11.036 5.99872 10.4834 5.99872C9.93084 5.99872 9.48291 6.44667 9.48291 6.99924C9.48291 7.55182 9.93084 7.99975 10.4834 7.99975Z" fill="white"/>
</g>
<defs>
<clipPath id="clip0_1110_9900">
<rect width="11.9" height="14" fill="white"/>
</clipPath>
</defs>
</svg>
