<svg width="30" height="27" viewBox="0 0 30 27" fill="none" xmlns="http://www.w3.org/2000/svg">
<g clip-path="url(#clip0_1110_8579)">
<path d="M10.1196 8.21422C10.1196 8.47642 9.9211 8.69603 9.66028 8.72227C7.37088 8.95258 5.58374 10.8852 5.58374 13.2353C5.58374 15.5853 7.37088 17.5179 9.66028 17.7481C9.9211 17.7744 10.1196 17.994 10.1196 18.2562V25.959C10.1196 26.2663 10.3889 26.5049 10.6937 26.4664C12.9278 26.1842 14.6556 24.2771 14.6556 21.9665C14.6556 19.6163 12.8684 17.6837 10.5791 17.4535C10.3182 17.4272 10.1196 17.2077 10.1196 16.9455V9.52505C10.1196 9.26281 10.3182 9.0432 10.5791 9.01699C12.8684 8.78674 14.6556 6.85406 14.6556 4.50404C14.6556 2.19334 12.9278 0.286228 10.6937 0.00407986C10.3889 -0.0343971 10.1196 0.204217 10.1196 0.511417V8.21422Z" fill="#9550C9"/>
<path d="M4.54277 8.21422C4.54277 8.47642 4.34423 8.69603 4.08336 8.72227C1.79398 8.95258 0.00683594 10.8852 0.00683594 13.2353C0.00683594 15.5853 1.79398 17.5179 4.08336 17.7481C4.34423 17.7744 4.54277 17.994 4.54277 18.2562V25.959C4.54277 26.2663 4.81206 26.5049 5.1168 26.4664C7.35091 26.1842 9.07874 24.2771 9.07874 21.9665C9.07874 19.6163 7.29156 17.6837 5.00218 17.4535C4.7413 17.4272 4.54277 17.2077 4.54277 16.9455V9.52505C4.54277 9.26281 4.7413 9.0432 5.00218 9.01699C7.29156 8.78674 9.07874 6.85406 9.07874 4.50404C9.07874 2.19334 7.35091 0.286228 5.1168 0.00407986C4.812 -0.0343971 4.54277 0.204217 4.54277 0.511417V8.21422Z" fill="#9550C9"/>
<path d="M19.6117 18.2563C19.6117 17.9941 19.8102 17.7745 20.071 17.7483C22.3604 17.518 24.1476 15.5854 24.1476 13.2353C24.1476 10.8852 22.3604 8.95262 20.071 8.72236C19.8102 8.69613 19.6117 8.47652 19.6117 8.21432V0.511417C19.6117 0.204216 19.3424 -0.034397 19.0376 0.00407986C16.8035 0.286228 15.0757 2.19334 15.0757 4.50403C15.0757 6.8541 16.8629 8.78674 19.1522 9.01703C19.4132 9.04323 19.6117 9.26285 19.6117 9.525V16.9455C19.6117 17.2077 19.4132 17.4274 19.1522 17.4536C16.8629 17.6839 15.0757 19.6165 15.0757 21.9665C15.0757 24.2772 16.8035 26.1843 19.0376 26.4664C19.3424 26.5049 19.6117 26.2663 19.6117 25.9591V18.2563Z" fill="#9550C9"/>
<path d="M25.1886 18.2563C25.1886 17.9941 25.3871 17.7745 25.6479 17.7483C27.9374 17.518 29.7245 15.5854 29.7245 13.2353C29.7245 10.8852 27.9374 8.95262 25.6479 8.72236C25.3871 8.69613 25.1886 8.47652 25.1886 8.21432V0.511417C25.1886 0.204216 24.9193 -0.034397 24.6145 0.00407986C22.3804 0.286228 20.6526 2.19334 20.6526 4.50403C20.6526 6.8541 22.4398 8.78674 24.7291 9.01703C24.9901 9.04323 25.1886 9.26285 25.1886 9.525V16.9455C25.1886 17.2077 24.9901 17.4274 24.7291 17.4536C22.4398 17.6839 20.6526 19.6165 20.6526 21.9665C20.6526 24.2772 22.3804 26.1843 24.6145 26.4664C24.9193 26.5049 25.1886 26.2663 25.1886 25.9591V18.2563Z" fill="#9550C9"/>
</g>
<defs>
<clipPath id="clip0_1110_8579">
<rect width="30" height="26.4706" fill="white"/>
</clipPath>
</defs>
</svg>
