<svg width="30" height="30" viewBox="0 0 30 30" fill="none" xmlns="http://www.w3.org/2000/svg">
<g clip-path="url(#clip0_1110_8522)">
<path d="M23.0962 23.1083C22.5846 23.9284 21.0315 24.3508 20.4103 23.62C19.5553 22.6141 20.1102 21.6486 20.7939 20.8975C21.9085 19.6733 22.0731 18.5085 21.7806 17.8949C21.2812 16.8473 20.1151 16.8056 19.2432 17.3183C17.9314 18.0898 17.5895 19.6641 17.1274 20.1362C16.5671 20.7087 14.3989 18.6136 13.2891 20.4214C12.756 21.2898 12.9859 22.8648 11.9423 23.7003C10.8861 24.5459 9.11228 24.2778 6.90625 23.1084V28.2244C7.71149 29.2659 10.0319 29.9967 11.6886 28.9616C12.7818 28.2785 13.495 27.2267 13.863 25.6908C14.4233 23.352 13.4123 20.7209 14.269 20.2255C15.2733 19.6448 15.9987 21.8578 17.1518 21.7441C18.4433 21.6167 18.2725 19.178 19.3119 18.9749C20.1434 18.8125 20.2133 19.9007 19.3871 20.8591C18.5758 21.8002 17.2564 22.4689 16.0505 24.4787C14.957 26.3011 15.3687 28.5835 16.6281 29.412C19.4053 31.2392 23.0962 28.2244 23.0962 28.2244V23.1083Z" fill="#9550C9"/>
<path d="M23.1103 6.90527C23.9303 7.41688 24.3528 8.96997 23.6219 9.59119C22.616 10.4461 21.6505 9.8913 20.8994 9.20751C19.6752 8.09295 18.5104 7.92833 17.8968 8.22083C16.8492 8.72028 16.8075 9.88637 17.3203 10.7582C18.0917 12.07 19.666 12.4119 20.1381 12.874C20.7107 13.4343 18.6155 15.6025 20.4233 16.7123C21.2918 17.2454 22.8667 17.0155 23.7023 18.0592C24.5478 19.1153 24.2797 20.8891 23.1104 23.0952H28.2264C29.2679 22.2899 29.9988 19.9695 28.9636 18.3128C28.2805 17.2196 27.2287 16.5065 25.6927 16.1385C23.3539 15.5782 20.7229 16.5892 20.2275 15.7325C19.6468 14.7281 21.8598 14.0028 21.746 12.8496C21.6187 11.5581 19.1799 11.729 18.9769 10.6895C18.8145 9.85814 19.9026 9.78817 20.861 10.6144C21.8022 11.4257 22.4708 12.7451 24.4807 13.951C26.303 15.0444 28.5855 14.6327 29.414 13.3734C31.2411 10.5962 28.2263 6.90532 28.2263 6.90532L23.1103 6.90527Z" fill="#9550C9"/>
<path d="M6.90625 6.89159C7.41786 6.07157 8.97095 5.64911 9.59217 6.37998C10.4471 7.38584 9.89233 8.35136 9.20849 9.10244C8.09393 10.3267 7.92931 11.4915 8.22181 12.1051C8.72126 13.1527 9.88735 13.1943 10.7592 12.6816C12.071 11.9102 12.4129 10.3358 12.875 9.86374C13.4353 9.29123 15.6036 11.3864 16.7133 9.57864C17.2464 8.71019 17.0166 7.13523 18.0602 6.29968C19.1163 5.4541 20.8902 5.72223 23.0962 6.89159V1.77555C22.291 0.734068 19.9705 0.00324309 18.3138 1.03835C17.2207 1.72145 16.5075 2.77327 16.1395 4.30922C15.5792 6.648 16.5902 9.27912 15.7335 9.77444C14.7291 10.3552 14.0037 8.14217 12.8506 8.2559C11.5591 8.38324 11.7299 10.822 10.6905 11.0251C9.85907 11.1874 9.7891 10.0993 10.6153 9.1409C11.4267 8.19976 12.746 7.53113 13.9519 5.52128C15.0454 3.69888 14.6337 1.41646 13.3744 0.587979C10.5971 -1.23919 6.90625 1.77561 6.90625 1.77561V6.89159Z" fill="#9550C9"/>
<path d="M6.89164 23.0952C6.07162 22.5836 5.64915 21.0305 6.38003 20.4092C7.38589 19.5543 8.35141 20.1091 9.10248 20.7929C10.3267 21.9075 11.4915 22.0721 12.1051 21.7796C13.1527 21.2802 13.1944 20.1141 12.6817 19.2422C11.9102 17.9304 10.3359 17.5885 9.86379 17.1264C9.29127 16.5661 11.3864 14.3979 9.57863 13.2881C8.71018 12.755 7.13523 12.9849 6.29967 11.9412C5.4541 10.8851 5.72222 9.1113 6.89158 6.90527H1.77555C0.734062 7.7105 0.00318515 10.0309 1.03835 11.6876C1.72144 12.7808 2.77326 13.494 4.30922 13.8619C6.64799 14.4222 9.27911 13.4112 9.77443 14.2679C10.3551 15.2723 8.14216 15.9976 8.25589 17.1507C8.38323 18.4423 10.822 18.2714 11.0251 19.3109C11.1874 20.1423 10.0993 20.2123 9.1409 19.386C8.19975 18.5747 7.53112 17.2553 5.52128 16.0494C3.69893 14.956 1.41646 15.3677 0.587973 16.627C-1.2392 19.4043 1.77565 23.0952 1.77565 23.0952H6.89164Z" fill="#9550C9"/>
</g>
<defs>
<clipPath id="clip0_1110_8522">
<rect width="30" height="30" fill="white"/>
</clipPath>
</defs>
</svg>
