<svg width="50" height="50" viewBox="0 0 50 50" fill="none" xmlns="http://www.w3.org/2000/svg">
<g clip-path="url(#clip0_1110_956)">
<path d="M25.246 23.8307L10.2559 8.84064L10.8614 8.23511L25.246 22.6196L39.6306 8.23511L40.2362 8.84064L25.246 23.8307Z" fill="#9550C9"/>
<path d="M25.2413 21.9693L11.1367 7.86476L11.6816 7.31982L25.2413 20.8794L38.8009 7.31982L39.3459 7.86476L25.2413 21.9693Z" fill="#9550C9"/>
<path d="M25.2444 20.1087L12.0251 6.88944L12.5096 6.40503L25.2444 19.1398L37.9791 6.40503L38.4636 6.88944L25.2444 20.1087Z" fill="#9550C9"/>
<path d="M25.2472 18.2476L12.9136 5.91387L13.3374 5.48999L25.2472 17.3998L37.157 5.48999L37.581 5.91387L25.2472 18.2476Z" fill="#9550C9"/>
<path d="M25.2427 16.3868L13.7944 4.93848L14.1578 4.5752L25.2427 15.6602L36.3277 4.5752L36.691 4.93848L25.2427 16.3868Z" fill="#9550C9"/>
<path d="M25.2456 14.5255L14.6829 3.96268L14.9856 3.65991L25.2456 13.9199L35.5057 3.65991L35.8084 3.96268L25.2456 14.5255Z" fill="#9550C9"/>
<path d="M25.241 12.6647L15.5637 2.98735L15.8059 2.74512L25.241 12.1803L34.6762 2.74512L34.9183 2.98735L25.241 12.6647Z" fill="#9550C9"/>
<path d="M25.2441 10.8033L16.4521 2.01147L16.6338 1.82983L25.2441 10.4401L33.8543 1.82983L34.036 2.01147L25.2441 10.8033Z" fill="#9550C9"/>
<path d="M25.247 8.9426L17.3406 1.03616L17.4617 0.915039L25.247 8.70035L33.0323 0.915039L33.1534 1.03616L25.247 8.9426Z" fill="#9550C9"/>
<path d="M25.2424 7.08145L18.2214 0.0605221L18.282 0L25.2424 6.9604L32.2028 0L32.2633 0.0605221L25.2424 7.08145Z" fill="#9550C9"/>
<path d="M39.6306 40.7847L25.246 26.4L10.8614 40.7847L10.2559 40.1791L25.246 25.189L40.2362 40.1791L39.6306 40.7847Z" fill="#9550C9"/>
<path d="M38.8009 41.6995L25.2413 28.1399L11.6816 41.6995L11.1367 41.1545L25.2413 27.0498L39.3459 41.1545L38.8009 41.6995Z" fill="#9550C9"/>
<path d="M37.9791 42.6145L25.2444 29.8798L12.5096 42.6145L12.0251 42.1301L25.2444 28.9109L38.4636 42.1301L37.9791 42.6145Z" fill="#9550C9"/>
<path d="M37.157 43.5298L25.2472 31.6199L13.3374 43.5298L12.9136 43.1059L25.2472 30.7722L37.581 43.1059L37.157 43.5298Z" fill="#9550C9"/>
<path d="M36.3277 44.4445L25.2427 33.3596L14.1578 44.4445L13.7944 44.0813L25.2427 32.6331L36.691 44.0813L36.3277 44.4445Z" fill="#9550C9"/>
<path d="M35.5057 45.3595L25.2456 35.0995L14.9856 45.3595L14.6829 45.0567L25.2456 34.4939L35.8084 45.0567L35.5057 45.3595Z" fill="#9550C9"/>
<path d="M34.6762 46.2747L25.241 36.8396L15.8059 46.2747L15.5637 46.0326L25.241 36.3552L34.9183 46.0326L34.6762 46.2747Z" fill="#9550C9"/>
<path d="M33.8543 47.1896L25.2441 38.5793L16.6338 47.1896L16.4521 47.0079L25.2441 38.2161L34.036 47.0079L33.8543 47.1896Z" fill="#9550C9"/>
<path d="M33.0323 48.1049L25.247 40.3196L17.4617 48.1049L17.3406 47.9839L25.247 40.0774L33.1534 47.9839L33.0323 48.1049Z" fill="#9550C9"/>
<path d="M32.2029 49.0197L25.2425 42.0593L18.2821 49.0197L18.2214 48.9592L25.2425 41.9382L32.2634 48.9592L32.2029 49.0197Z" fill="#9550C9"/>
<path d="M40.917 39.5L25.9268 24.51L40.917 9.51978L41.5224 10.1253L27.1378 24.51L41.5224 38.8945L40.917 39.5Z" fill="#9550C9"/>
<path d="M41.8927 38.6145L27.7881 24.5099L41.8927 10.4053L42.4377 10.9502L28.878 24.5099L42.4377 38.0695L41.8927 38.6145Z" fill="#9550C9"/>
<path d="M42.8683 37.7292L29.6492 24.51L42.8683 11.2908L43.3528 11.7752L30.618 24.51L43.3528 37.2447L42.8683 37.7292Z" fill="#9550C9"/>
<path d="M43.8442 36.8435L31.5105 24.5098L43.8442 12.176L44.2681 12.5999L32.3583 24.5098L44.2681 36.4197L43.8442 36.8435Z" fill="#9550C9"/>
<path d="M44.8198 35.9582L33.3716 24.51L44.8198 13.0618L45.1831 13.425L34.0982 24.51L45.1831 35.5949L44.8198 35.9582Z" fill="#9550C9"/>
<path d="M45.7958 35.0724L35.2329 24.5096L45.7958 13.9468L46.0985 14.2495L35.8384 24.5096L46.0985 34.7696L45.7958 35.0724Z" fill="#9550C9"/>
<path d="M46.7714 34.1875L37.094 24.5101L46.7714 14.8328L47.0137 15.075L37.5785 24.5101L47.0137 33.9452L46.7714 34.1875Z" fill="#9550C9"/>
<path d="M47.7472 33.3018L38.9553 24.51L47.7472 15.718L47.9289 15.8997L39.3186 24.51L47.9289 33.1201L47.7472 33.3018Z" fill="#9550C9"/>
<path d="M48.7229 32.4161L40.8164 24.5097L48.7229 16.6033L48.844 16.7243L41.0586 24.5097L48.844 32.295L48.7229 32.4161Z" fill="#9550C9"/>
<path d="M49.6988 31.5309L42.6777 24.51L49.6988 17.489L49.7593 17.5496L42.7989 24.51L49.7593 31.4704L49.6988 31.5309Z" fill="#9550C9"/>
<path d="M9.57451 39.5L8.96899 38.8945L23.3536 24.51L8.96899 10.1254L9.57451 9.51978L24.5645 24.51L9.57451 39.5Z" fill="#9550C9"/>
<path d="M8.60255 38.6145L8.05762 38.0695L21.6173 24.5099L8.05762 10.9502L8.60255 10.4053L22.7073 24.5099L8.60255 38.6145Z" fill="#9550C9"/>
<path d="M7.62283 37.7289L7.13843 37.2444L19.8732 24.5096L7.13843 11.7749L7.62283 11.2905L20.842 24.5096L7.62283 37.7289Z" fill="#9550C9"/>
<path d="M6.65095 36.8437L6.22705 36.4198L18.1369 24.51L6.22705 12.6002L6.65095 12.1763L18.9846 24.51L6.65095 36.8437Z" fill="#9550C9"/>
<path d="M5.67122 35.9582L5.30786 35.5949L16.3928 24.51L5.30786 13.425L5.67122 13.0618L17.1195 24.51L5.67122 35.9582Z" fill="#9550C9"/>
<path d="M4.69923 35.0724L4.39648 34.7696L14.6564 24.5096L4.39648 14.2495L4.69923 13.9468L15.2621 24.5096L4.69923 35.0724Z" fill="#9550C9"/>
<path d="M3.71954 34.1875L3.47729 33.9452L12.9124 24.5101L3.47729 15.075L3.71954 14.8328L13.3968 24.5101L3.71954 34.1875Z" fill="#9550C9"/>
<path d="M2.74756 33.3018L2.56592 33.1201L11.1761 24.51L2.56592 15.8997L2.74756 15.718L11.5395 24.51L2.74756 33.3018Z" fill="#9550C9"/>
<path d="M1.76784 32.4161L1.64673 32.295L9.43205 24.5097L1.64673 16.7243L1.76784 16.6033L9.67429 24.5097L1.76784 32.4161Z" fill="#9550C9"/>
<path d="M0.795888 31.5309L0.735352 31.4704L7.69576 24.51L0.735352 17.5496L0.795888 17.489L7.8168 24.51L0.795888 31.5309Z" fill="#9550C9"/>
</g>
<defs>
<clipPath id="clip0_1110_956">
<rect width="50" height="49.0196" fill="white"/>
</clipPath>
</defs>
</svg>
