<svg width="30" height="30" viewBox="0 0 30 30" fill="none" xmlns="http://www.w3.org/2000/svg">
<g clip-path="url(#clip0_1110_8531)">
<path d="M28.1313 1.87012C28.1209 1.88528 28.1105 1.90044 28.1001 1.9156C28.0954 1.91078 28.0907 1.90596 28.0859 1.90114C28.101 1.8908 28.1161 1.88046 28.1313 1.87012Z" fill="#9550C9"/>
<path d="M1.90613 1.9156C1.89574 1.90044 1.88539 1.88523 1.875 1.87012C1.89011 1.88046 1.90521 1.8908 1.92032 1.90114C1.91555 1.90596 1.91084 1.91078 1.90613 1.9156Z" fill="#9550C9"/>
<path d="M28.1312 28.1295C28.1162 28.1192 28.101 28.1088 28.0859 28.0985C28.0907 28.0937 28.0954 28.0888 28.1001 28.084C28.1104 28.0992 28.1208 28.1143 28.1312 28.1295Z" fill="#9550C9"/>
<path d="M1.875 28.1295C1.88539 28.1143 1.89573 28.0992 1.90612 28.084C1.91089 28.0888 1.91555 28.0937 1.92032 28.0985C1.90521 28.1088 1.89011 28.1192 1.875 28.1295Z" fill="#9550C9"/>
<path d="M1.91406 1.90129C1.92933 1.88586 1.94455 1.87043 1.95987 1.85506C4.42641 -0.625034 8.44545 -0.613302 10.9187 1.85999L14.9985 5.93972C10.1447 5.93978 5.63916 4.4492 1.91406 1.90129Z" fill="#9550C9"/>
<path d="M28.0386 1.85504C28.0539 1.87041 28.0691 1.88579 28.0844 1.90122C24.3593 4.44913 19.8538 5.9397 15 5.9397L19.0797 1.85997C21.5531 -0.613322 25.5721 -0.625001 28.0386 1.85504Z" fill="#9550C9"/>
<path d="M28.0845 28.0986C28.0692 28.114 28.054 28.1295 28.0387 28.1448C25.5721 30.6249 21.5531 30.6132 19.0798 28.1398L15 24.0601C19.8538 24.0601 24.3594 25.5507 28.0845 28.0986Z" fill="#9550C9"/>
<path d="M1.95987 28.1448C1.94454 28.1294 1.92928 28.114 1.91406 28.0986C5.63921 25.5507 10.1447 24.0601 14.9985 24.0601L10.9187 28.1399C8.44539 30.6131 4.4264 30.6248 1.95987 28.1448Z" fill="#9550C9"/>
<path d="M1.90377 28.0843C1.86846 28.0485 1.83332 28.0125 1.79834 27.9764C-0.613292 25.4893 -0.586077 21.5283 1.86359 19.0786L5.9422 15C5.9422 19.8538 4.45162 24.3593 1.90377 28.0843Z" fill="#9550C9"/>
<path d="M1.79834 2.02342C1.83332 1.98732 1.86852 1.95137 1.90377 1.91553C4.45163 5.64062 5.94215 10.1461 5.94215 14.9998L1.86354 10.9213C-0.586069 8.47155 -0.613285 4.51053 1.79834 2.02342Z" fill="#9550C9"/>
<path d="M28.2064 27.9764C28.1714 28.0125 28.1362 28.0485 28.1009 28.0843C25.5531 24.3592 24.0625 19.8538 24.0625 15L28.1411 19.0786C30.5908 21.5282 30.618 25.4893 28.2064 27.9764Z" fill="#9550C9"/>
<path d="M28.1009 1.91553C28.1362 1.95137 28.1714 1.98732 28.2064 2.02342C30.618 4.51053 30.5908 8.47155 28.1411 10.9213L24.0625 14.9998C24.0626 10.1461 25.5531 5.64062 28.1009 1.91553Z" fill="#9550C9"/>
<path d="M23.4197 6.58154C23.413 6.59124 23.4064 6.60099 23.3997 6.61068C23.3967 6.60757 23.3937 6.60447 23.3906 6.60141C23.4003 6.59482 23.41 6.58818 23.4197 6.58154Z" fill="#9550C9"/>
<path d="M6.60592 6.61068C6.59928 6.60093 6.59263 6.59124 6.58594 6.58154C6.59563 6.58818 6.60534 6.59477 6.61503 6.60141C6.61198 6.60447 6.60892 6.60757 6.60592 6.61068Z" fill="#9550C9"/>
<path d="M23.4197 23.4183C23.41 23.4117 23.4003 23.4051 23.3906 23.3985C23.3937 23.3954 23.3967 23.3923 23.3997 23.3892C23.4064 23.3989 23.413 23.4086 23.4197 23.4183Z" fill="#9550C9"/>
<path d="M6.58594 23.4183C6.59263 23.4087 6.59923 23.3989 6.60587 23.3892C6.60892 23.3923 6.61192 23.3954 6.61497 23.3985C6.60528 23.4051 6.59558 23.4117 6.58594 23.4183Z" fill="#9550C9"/>
<path d="M6.61719 6.60092C6.62694 6.59101 6.63675 6.58115 6.64655 6.5713C8.22809 4.98108 10.805 4.98858 12.3909 6.57446L15.0068 9.19035C11.8946 9.19035 9.00573 8.23459 6.61719 6.60092Z" fill="#9550C9"/>
<path d="M23.3681 6.5713C23.3779 6.58115 23.3877 6.59101 23.3974 6.60092C21.0089 8.23459 18.12 9.19035 15.0078 9.19035L17.6237 6.57446C19.2096 4.98858 21.7866 4.98108 23.3681 6.5713Z" fill="#9550C9"/>
<path d="M23.3974 23.3986C23.3877 23.4085 23.3779 23.4183 23.3681 23.4282C21.7865 25.0184 19.2096 25.0109 17.6237 23.425L15.0078 20.8091C18.12 20.8091 21.0089 21.7648 23.3974 23.3986Z" fill="#9550C9"/>
<path d="M6.64655 23.4282C6.63675 23.4183 6.62694 23.4085 6.61719 23.3986C9.00567 21.7648 11.8946 20.8091 15.0068 20.8091L12.3909 23.425C10.805 25.0108 8.22809 25.0183 6.64655 23.4282Z" fill="#9550C9"/>
<path d="M6.60629 23.3895C6.58368 23.3665 6.56113 23.3435 6.53869 23.3203C4.9924 21.7256 5.00981 19.1859 6.58053 17.6151L9.19567 15C9.19567 18.1121 8.23995 21.001 6.60629 23.3895Z" fill="#9550C9"/>
<path d="M6.53867 6.68C6.56111 6.65685 6.58367 6.63382 6.60627 6.61084C8.23993 8.99932 9.19565 11.8881 9.19565 15.0003L6.58051 12.3852C5.00984 10.8144 4.99238 8.27471 6.53867 6.68Z" fill="#9550C9"/>
<path d="M23.4695 23.3203C23.447 23.3435 23.4245 23.3665 23.4019 23.3895C21.7682 21.001 20.8125 18.1122 20.8125 15L23.4276 17.6151C24.9984 19.1859 25.0158 21.7256 23.4695 23.3203Z" fill="#9550C9"/>
<path d="M23.4019 6.61084C23.4245 6.63382 23.447 6.65685 23.4695 6.68C25.0158 8.27471 24.9984 10.8144 23.4276 12.3852L20.8125 15.0003C20.8125 11.8881 21.7682 8.99932 23.4019 6.61084Z" fill="#9550C9"/>
</g>
<defs>
<clipPath id="clip0_1110_8531">
<rect width="30" height="30" fill="white"/>
</clipPath>
</defs>
</svg>
