<svg width="30" height="30" viewBox="0 0 30 30" fill="none" xmlns="http://www.w3.org/2000/svg">
<g clip-path="url(#clip0_1110_8588)">
<path d="M22.554 22.9759C21.3429 21.7648 19.7004 21.0845 17.9876 21.0845H12.0058C10.2932 21.0845 8.65059 21.7648 7.4395 22.9759L3.61304 26.8024C3.47274 26.9427 3.47274 27.1701 3.61304 27.3105L6.19744 29.8949C6.33775 30.0352 6.56521 30.0352 6.70552 29.8949L12.6542 23.9462C13.2755 23.3249 14.1181 22.9759 14.9967 22.9759C15.8753 22.9759 16.7179 23.3249 17.3392 23.9462L23.2879 29.8949C23.4282 30.0352 23.6556 30.0352 23.7959 29.8949L26.3803 27.3105C26.5206 27.1701 26.5206 26.9427 26.3803 26.8024L22.554 22.9759Z" fill="#9550C9"/>
<path d="M7.02416 22.5574C8.23526 21.3464 8.91562 19.7038 8.91562 17.9911V12.0093C8.91562 10.2966 8.23526 8.65401 7.02416 7.44292L3.1977 3.61646C3.0574 3.47615 2.82993 3.47615 2.68963 3.61646L0.105228 6.20086C-0.035076 6.34117 -0.035076 6.56863 0.105228 6.70894L6.05393 12.6576C6.6752 13.2789 7.02422 14.1215 7.02422 15.0001C7.02422 15.8787 6.6752 16.7213 6.05393 17.3426L0.105228 23.2913C-0.035076 23.4316 -0.035076 23.6591 0.105228 23.7994L2.68963 26.3838C2.82993 26.5241 3.0574 26.5241 3.1977 26.3838L7.02416 22.5574Z" fill="#9550C9"/>
<path d="M7.43945 7.02422C8.65054 8.23531 10.293 8.91567 12.0058 8.91567H17.9876C19.7003 8.91567 21.3428 8.23531 22.5539 7.02422L26.3804 3.19776C26.5207 3.05746 26.5207 2.82999 26.3804 2.68969L23.796 0.105287C23.6557 -0.0350172 23.4282 -0.0350172 23.2879 0.105287L17.3392 6.05399C16.7179 6.67526 15.8753 7.02427 14.9967 7.02427C14.1181 7.02427 13.2755 6.67526 12.6543 6.05399L6.70552 0.105228C6.56521 -0.035076 6.33775 -0.035076 6.19744 0.105228L3.61304 2.68963C3.47274 2.82994 3.47274 3.0574 3.61304 3.19771L7.43945 7.02422Z" fill="#9550C9"/>
<path d="M22.9774 7.44281C21.7663 8.65385 21.0859 10.2964 21.0859 12.0091V17.991C21.0859 19.7036 21.7663 21.3462 22.9774 22.5573L26.8039 26.3838C26.9442 26.5241 27.1716 26.5241 27.3119 26.3838L29.8963 23.7994C30.0366 23.659 30.0366 23.4316 29.8963 23.2913L23.9476 17.3426C23.3264 16.7213 22.9773 15.8787 22.9773 15.0001C22.9773 14.1215 23.3264 13.2789 23.9476 12.6576L29.8963 6.70893C30.0366 6.56863 30.0366 6.34116 29.8963 6.20086L27.3119 3.61646C27.1716 3.47615 26.9442 3.47615 26.8039 3.61646L22.9774 7.44281Z" fill="#9550C9"/>
</g>
<defs>
<clipPath id="clip0_1110_8588">
<rect width="30" height="30" fill="white"/>
</clipPath>
</defs>
</svg>
