<svg width="30" height="30" viewBox="0 0 30 30" fill="none" xmlns="http://www.w3.org/2000/svg">
<g clip-path="url(#clip0_1110_8560)">
<path d="M18.6531 7.54262C17.4977 8.14476 16.2554 8.97967 15.0046 9.98799V1.27149C11.4523 -0.336774 8.28779 -0.485915 6.59494 1.20694C4.63133 3.17055 5.14658 7.11431 7.54235 11.3466C8.14449 12.502 8.97951 13.7445 9.98794 14.9954H1.27149C-0.336774 18.5477 -0.485915 21.7122 1.20694 23.4051C3.17055 25.3687 7.11436 24.8534 11.3467 22.4576C12.5021 21.8555 13.7445 21.0205 14.9954 20.0121V28.7285C18.5477 30.3368 21.7123 30.4859 23.4051 28.7931C25.3688 26.8294 24.8534 22.8855 22.4575 18.6531C21.8553 17.4977 21.0204 16.2554 20.0121 15.0046H28.7286C30.3368 11.4523 30.486 8.28779 28.7931 6.59494C26.8294 4.63138 22.8854 5.14669 18.6531 7.54262ZM22.9829 7.01719C24.129 8.1633 22.8059 11.436 19.9718 14.9552C19.2688 14.087 18.4831 13.2151 17.634 12.366C16.7849 11.517 15.9131 10.7312 15.0448 10.0282C18.5641 7.19419 21.8368 5.87108 22.9829 7.01719ZM7.01708 7.01719C8.16313 5.87114 11.4358 7.19419 14.9551 10.0282C14.0868 10.7312 13.215 11.517 12.366 12.366C11.5169 13.2151 10.7311 14.0869 10.0281 14.9552C7.19408 11.4359 5.87097 8.16324 7.01708 7.01719ZM7.01708 22.983C5.87097 21.8369 7.19408 18.5642 10.0281 15.0449C10.7311 15.9132 11.5169 16.785 12.3659 17.6341C13.215 18.4831 14.0868 19.2689 14.9551 19.9719C11.4359 22.806 8.16319 24.129 7.01708 22.983ZM22.9829 22.983C21.8368 24.1291 18.5641 22.806 15.0448 19.9719C15.9131 19.2689 16.7849 18.4832 17.634 17.6341C18.4831 16.785 19.2688 15.9132 19.9718 15.0449C22.8059 18.5642 24.1289 21.8369 22.9829 22.983Z" fill="#9550C9"/>
</g>
<defs>
<clipPath id="clip0_1110_8560">
<rect width="30" height="30" fill="white"/>
</clipPath>
</defs>
</svg>
