<svg width="30" height="30" viewBox="0 0 30 30" fill="none" xmlns="http://www.w3.org/2000/svg">
<g clip-path="url(#clip0_1110_8566)">
<path d="M10 30V20H20C20 25.5228 15.5228 30 10 30Z" fill="#9550C9"/>
<path d="M20 30C20 24.4772 24.4771 20 29.9999 20C30 25.5228 25.5228 30 20 30Z" fill="#9550C9"/>
<path d="M30 20H20V10C25.5228 10 30 14.4772 30 20Z" fill="#9550C9"/>
<path d="M30 9.99999C24.4772 9.99999 20 5.52282 20 0C25.5228 5.35713e-05 30 4.47717 30 9.99999Z" fill="#9550C9"/>
<path d="M20 0V9.99999H10C10 4.47711 14.4772 0 20 0Z" fill="#9550C9"/>
<path d="M9.99994 0C9.99994 5.52282 5.52282 9.99999 0 9.99999C0 4.47711 4.47711 0 9.99994 0Z" fill="#9550C9"/>
<path d="M0 10H9.99999V20C4.47711 20 0 15.5229 0 10Z" fill="#9550C9"/>
<path d="M0 20C5.52282 20 9.99999 24.4772 9.99999 30C4.47711 30 0 25.5228 0 20Z" fill="#9550C9"/>
</g>
<defs>
<clipPath id="clip0_1110_8566">
<rect width="30" height="30" fill="white"/>
</clipPath>
</defs>
</svg>
