<svg width="15" height="15" viewBox="0 0 15 15" fill="none" xmlns="http://www.w3.org/2000/svg">
<g clip-path="url(#clip0_1110_839)">
<path d="M2.14286 9.64277C3.32633 9.64277 4.28572 8.68338 4.28572 7.49991C4.28572 6.31645 3.32633 5.35706 2.14286 5.35706C0.95939 5.35706 0 6.31645 0 7.49991C0 8.68338 0.95939 9.64277 2.14286 9.64277Z" fill="#9550C9"/>
<path d="M7.50101 4.28572C8.68448 4.28572 9.64387 3.32633 9.64387 2.14286C9.64387 0.95939 8.68448 0 7.50101 0C6.31754 0 5.35815 0.95939 5.35815 2.14286C5.35815 3.32633 6.31754 4.28572 7.50101 4.28572Z" fill="#9550C9"/>
<path d="M7.50101 9.64277C8.68448 9.64277 9.64387 8.68338 9.64387 7.49991C9.64387 6.31645 8.68448 5.35706 7.50101 5.35706C6.31754 5.35706 5.35815 6.31645 5.35815 7.49991C5.35815 8.68338 6.31754 9.64277 7.50101 9.64277Z" fill="#9550C9"/>
<path d="M7.50101 15.0001C8.68448 15.0001 9.64387 14.0407 9.64387 12.8572C9.64387 11.6737 8.68448 10.7144 7.50101 10.7144C6.31754 10.7144 5.35815 11.6737 5.35815 12.8572C5.35815 14.0407 6.31754 15.0001 7.50101 15.0001Z" fill="#9550C9"/>
<path d="M12.8589 9.64277C14.0424 9.64277 15.0018 8.68338 15.0018 7.49991C15.0018 6.31645 14.0424 5.35706 12.8589 5.35706C11.6755 5.35706 10.7161 6.31645 10.7161 7.49991C10.7161 8.68338 11.6755 9.64277 12.8589 9.64277Z" fill="#9550C9"/>
</g>
<defs>
<clipPath id="clip0_1110_839">
<rect width="15" height="15" fill="white"/>
</clipPath>
</defs>
</svg>
