<svg width="50" height="44" viewBox="0 0 50 44" fill="none" xmlns="http://www.w3.org/2000/svg">
<g clip-path="url(#clip0_1110_891)">
<path d="M13.0264 0H37.9121L38.1826 0.468553H12.7559L13.0264 0Z" fill="#9550C9"/>
<path d="M39.4807 2.71239H11.4629L11.7333 2.2439H39.2102L39.4807 2.71239Z" fill="#9550C9"/>
<path d="M40.772 4.95654H10.1631L10.4335 4.48804H40.5015L40.772 4.95654Z" fill="#9550C9"/>
<path d="M42.0698 7.20042H8.86987L9.1403 6.73193H41.7994L42.0698 7.20042Z" fill="#9550C9"/>
<path d="M43.3677 9.44437H7.57666L7.84712 8.97583H43.0972L43.3677 9.44437Z" fill="#9550C9"/>
<path d="M44.6591 11.6882H6.27686L6.54738 11.2197H44.3885L44.6591 11.6882Z" fill="#9550C9"/>
<path d="M45.9572 13.9321H4.98389L5.25441 13.4636H45.6867L45.9572 13.9321Z" fill="#9550C9"/>
<path d="M47.255 16.1761H3.69067L3.96113 15.7075H46.9846L47.255 16.1761Z" fill="#9550C9"/>
<path d="M48.5463 18.4202H2.39087L2.66133 17.9517H48.2758L48.5463 18.4202Z" fill="#9550C9"/>
<path d="M49.8444 20.6641H1.0979L1.36837 20.1956H49.5739L49.8444 20.6641Z" fill="#9550C9"/>
<path d="M49.5739 22.9079H1.36837L1.0979 22.4395H49.8444L49.5739 22.9079Z" fill="#9550C9"/>
<path d="M48.2758 25.1518H2.66133L2.39087 24.6833H48.5463L48.2758 25.1518Z" fill="#9550C9"/>
<path d="M46.9846 27.3959H3.96119L3.69067 26.9275H47.255L46.9846 27.3959Z" fill="#9550C9"/>
<path d="M45.6867 29.6399H5.25441L4.98389 29.1714H45.9572L45.6867 29.6399Z" fill="#9550C9"/>
<path d="M44.3885 31.8838H6.54738L6.27686 31.4153H44.6591L44.3885 31.8838Z" fill="#9550C9"/>
<path d="M43.0972 34.1276H7.84712L7.57666 33.6592H43.3677L43.0972 34.1276Z" fill="#9550C9"/>
<path d="M41.7994 36.3716H9.1403L8.86987 35.9031H42.0698L41.7994 36.3716Z" fill="#9550C9"/>
<path d="M40.5015 38.6155H10.4335L10.1631 38.147H40.772L40.5015 38.6155Z" fill="#9550C9"/>
<path d="M39.2102 40.8596H11.7334L11.4629 40.3911H39.4807L39.2102 40.8596Z" fill="#9550C9"/>
<path d="M37.9121 43.1035H13.0264L12.7559 42.635H38.1826L37.9121 43.1035Z" fill="#9550C9"/>
<path d="M30.9539 0.936999H12.4866L12.757 0.468506H30.6834L30.9539 0.936999Z" fill="#9550C9"/>
<path d="M32.2518 3.1809H11.1934L11.4639 2.7124H31.9814L32.2518 3.1809Z" fill="#9550C9"/>
<path d="M33.55 5.42503H9.90039L10.1709 4.95654H33.2794L33.55 5.42503Z" fill="#9550C9"/>
<path d="M34.8412 7.66899H8.60059L8.87114 7.20044H34.5707L34.8412 7.66899Z" fill="#9550C9"/>
<path d="M36.1391 9.91287H7.30737L7.5779 9.44434H35.8686L36.1391 9.91287Z" fill="#9550C9"/>
<path d="M37.4304 12.1568H6.00757L6.27803 11.6882H37.1599L37.4304 12.1568Z" fill="#9550C9"/>
<path d="M38.7282 14.4006H4.71436L4.98481 13.9321H38.4578L38.7282 14.4006Z" fill="#9550C9"/>
<path d="M40.0263 16.6446H3.42139L3.69191 16.176H39.7559L40.0263 16.6446Z" fill="#9550C9"/>
<path d="M41.3177 18.8887H2.12158L2.3921 18.4202H41.0471L41.3177 18.8887Z" fill="#9550C9"/>
<path d="M42.6155 21.1325H0.828369L1.09889 20.6641H42.345L42.6155 21.1325Z" fill="#9550C9"/>
<path d="M42.6134 22.908L42.3428 23.3765H1.6377L1.36719 22.908H42.6134Z" fill="#9550C9"/>
<path d="M41.0516 25.6204H2.93751L2.66699 25.1519H41.3221L41.0516 25.6204Z" fill="#9550C9"/>
<path d="M39.7538 27.8643H4.23073L3.96021 27.3958H40.0242L39.7538 27.8643Z" fill="#9550C9"/>
<path d="M38.4555 30.1084H5.52363L5.25317 29.6399H38.7261L38.4555 30.1084Z" fill="#9550C9"/>
<path d="M37.1643 32.3523H6.82344L6.55298 31.8838H37.4347L37.1643 32.3523Z" fill="#9550C9"/>
<path d="M35.8664 34.5962H8.11672L7.84619 34.1277H36.1369L35.8664 34.5962Z" fill="#9550C9"/>
<path d="M34.5685 36.8401H9.40992L9.1394 36.3716H34.8391L34.5685 36.8401Z" fill="#9550C9"/>
<path d="M33.2773 39.0842H10.7097L10.4392 38.6157H33.5478L33.2773 39.0842Z" fill="#9550C9"/>
<path d="M31.9792 41.3279H12.0027L11.7322 40.8594H32.2497L31.9792 41.3279Z" fill="#9550C9"/>
<path d="M21.2923 1.4055H12.217L12.4876 0.937012H21.0219L21.2923 1.4055Z" fill="#9550C9"/>
<path d="M22.5904 3.6494H10.9241L11.1945 3.18091H22.3199L22.5904 3.6494Z" fill="#9550C9"/>
<path d="M23.8817 5.8933H9.62427L9.8947 5.4248H23.6112L23.8817 5.8933Z" fill="#9550C9"/>
<path d="M25.1796 8.13744H8.33105L8.60152 7.66895H24.9091L25.1796 8.13744Z" fill="#9550C9"/>
<path d="M26.4777 10.3814H7.03809L7.30854 9.91284H26.2072L26.4777 10.3814Z" fill="#9550C9"/>
<path d="M27.7688 12.6253H5.73804L6.00856 12.1567H27.4983L27.7688 12.6253Z" fill="#9550C9"/>
<path d="M29.0668 14.8691H4.44507L4.71559 14.4006H28.7964L29.0668 14.8691Z" fill="#9550C9"/>
<path d="M30.3647 17.1133H3.15186L3.42231 16.6448H30.0942L30.3647 17.1133Z" fill="#9550C9"/>
<path d="M31.656 19.3571H1.85205L2.12251 18.8887H31.3855L31.656 19.3571Z" fill="#9550C9"/>
<path d="M32.9526 21.6011H0.614409L0.585938 21.5519L0.827988 21.1326H32.6821L32.9526 21.6011Z" fill="#9550C9"/>
<path d="M32.9495 23.3765L32.679 23.845H1.90694L1.63647 23.3765H32.9495Z" fill="#9550C9"/>
<path d="M31.388 26.0889H3.20699L2.93652 25.6204H31.6586L31.388 26.0889Z" fill="#9550C9"/>
<path d="M30.0899 28.333H4.50001L4.22949 27.8645H30.3604L30.0899 28.333Z" fill="#9550C9"/>
<path d="M28.7986 30.5768H5.79982L5.5293 30.1084H29.0692L28.7986 30.5768Z" fill="#9550C9"/>
<path d="M27.5008 32.8208H7.09304L6.82251 32.3523H27.7712L27.5008 32.8208Z" fill="#9550C9"/>
<path d="M26.2026 35.0646H8.38594L8.11548 34.5962H26.4731L26.2026 35.0646Z" fill="#9550C9"/>
<path d="M24.9116 37.3085H9.68596L9.41553 36.8401H25.1821L24.9116 37.3085Z" fill="#9550C9"/>
<path d="M23.6135 39.5525H10.9789L10.7085 39.084H23.884L23.6135 39.5525Z" fill="#9550C9"/>
<path d="M22.3156 41.7967H12.2721L12.0017 41.3281H22.5861L22.3156 41.7967Z" fill="#9550C9"/>
</g>
<defs>
<clipPath id="clip0_1110_891">
<rect width="50" height="43.1034" fill="white"/>
</clipPath>
</defs>
</svg>
