<svg width="18" height="18" viewBox="0 0 18 18" fill="none" xmlns="http://www.w3.org/2000/svg">
<g clip-path="url(#clip0_1110_8655)">
<path d="M2.57143 11.5716C3.99159 11.5716 5.14286 10.4203 5.14286 9.00014C5.14286 7.57998 3.99159 6.42871 2.57143 6.42871C1.15127 6.42871 0 7.57998 0 9.00014C0 10.4203 1.15127 11.5716 2.57143 11.5716Z" fill="#9550C9"/>
<path d="M9.00112 5.14286C10.4213 5.14286 11.5725 3.99159 11.5725 2.57143C11.5725 1.15127 10.4213 0 9.00112 0C7.58096 0 6.42969 1.15127 6.42969 2.57143C6.42969 3.99159 7.58096 5.14286 9.00112 5.14286Z" fill="#9550C9"/>
<path d="M9.00112 11.5716C10.4213 11.5716 11.5725 10.4203 11.5725 9.00014C11.5725 7.57998 10.4213 6.42871 9.00112 6.42871C7.58096 6.42871 6.42969 7.57998 6.42969 9.00014C6.42969 10.4203 7.58096 11.5716 9.00112 11.5716Z" fill="#9550C9"/>
<path d="M9.00112 17.9998C10.4213 17.9998 11.5725 16.8485 11.5725 15.4284C11.5725 14.0082 10.4213 12.8569 9.00112 12.8569C7.58096 12.8569 6.42969 14.0082 6.42969 15.4284C6.42969 16.8485 7.58096 17.9998 9.00112 17.9998Z" fill="#9550C9"/>
<path d="M15.4308 11.5716C16.851 11.5716 18.0022 10.4203 18.0022 9.00014C18.0022 7.57998 16.851 6.42871 15.4308 6.42871C14.0106 6.42871 12.8594 7.57998 12.8594 9.00014C12.8594 10.4203 14.0106 11.5716 15.4308 11.5716Z" fill="#9550C9"/>
</g>
<defs>
<clipPath id="clip0_1110_8655">
<rect width="18" height="18" fill="white"/>
</clipPath>
</defs>
</svg>
