<svg width="20" height="14" viewBox="0 0 20 14" fill="none" xmlns="http://www.w3.org/2000/svg">
<g clip-path="url(#clip0_1110_8862)">
<path d="M1.04904 7.96625C0.515246 7.96625 0.0825195 7.53352 0.0825195 6.99972C0.0825195 6.46593 0.515246 6.0332 1.04904 6.0332C1.58284 6.0332 2.01556 6.46593 2.01556 6.99972C2.01556 7.53352 1.58284 7.96625 1.04904 7.96625Z" fill="#9550C9"/>
<path d="M3.94748 7.96625C3.41369 7.96625 2.98096 7.53352 2.98096 6.99972C2.98096 6.46593 3.41369 6.0332 3.94748 6.0332C4.48128 6.0332 4.914 6.46593 4.914 6.99972C4.914 7.53352 4.48128 7.96625 3.94748 7.96625Z" fill="#9550C9"/>
<path d="M3.94748 10.8661C3.41369 10.8661 2.98096 10.4334 2.98096 9.89962C2.98096 9.36582 3.41369 8.93311 3.94748 8.93311C4.48128 8.93311 4.914 9.36582 4.914 9.89962C4.914 10.4334 4.48128 10.8661 3.94748 10.8661Z" fill="#9550C9"/>
<path d="M3.94748 5.06683C3.41369 5.06683 2.98096 4.63411 2.98096 4.10031C2.98096 3.56652 3.41369 3.13379 3.94748 3.13379C4.48128 3.13379 4.914 3.56652 4.914 4.10031C4.914 4.63411 4.48128 5.06683 3.94748 5.06683Z" fill="#9550C9"/>
<path d="M6.84591 7.96625C6.31211 7.96625 5.87939 7.53352 5.87939 6.99972C5.87939 6.46593 6.31211 6.0332 6.84591 6.0332C7.3797 6.0332 7.81243 6.46593 7.81243 6.99972C7.81243 7.53352 7.3797 7.96625 6.84591 7.96625Z" fill="#9550C9"/>
<path d="M9.74436 7.96625C9.21056 7.96625 8.77783 7.53352 8.77783 6.99972C8.77783 6.46593 9.21056 6.0332 9.74436 6.0332C10.2781 6.0332 10.7108 6.46593 10.7108 6.99972C10.7108 7.53352 10.2781 7.96625 9.74436 7.96625Z" fill="#9550C9"/>
<path d="M12.6429 7.96625C12.1091 7.96625 11.6763 7.53352 11.6763 6.99972C11.6763 6.46593 12.1091 6.0332 12.6429 6.0332C13.1766 6.0332 13.6094 6.46593 13.6094 6.99972C13.6094 7.53352 13.1766 7.96625 12.6429 7.96625Z" fill="#9550C9"/>
<path d="M15.549 7.96625C15.0152 7.96625 14.5825 7.53352 14.5825 6.99972C14.5825 6.46593 15.0152 6.0332 15.549 6.0332C16.0828 6.0332 16.5155 6.46593 16.5155 6.99972C16.5155 7.53352 16.0828 7.96625 15.549 7.96625Z" fill="#9550C9"/>
<path d="M18.4475 7.96625C17.9137 7.96625 17.481 7.53352 17.481 6.99972C17.481 6.46593 17.9137 6.0332 18.4475 6.0332C18.9813 6.0332 19.4141 6.46593 19.4141 6.99972C19.4141 7.53352 18.9813 7.96625 18.4475 7.96625Z" fill="#9550C9"/>
<path d="M6.84591 13.7656C6.31211 13.7656 5.87939 13.3328 5.87939 12.799C5.87939 12.2652 6.31211 11.8325 6.84591 11.8325C7.3797 11.8325 7.81243 12.2652 7.81243 12.799C7.81243 13.3328 7.3797 13.7656 6.84591 13.7656Z" fill="#9550C9"/>
<path d="M6.84591 2.16742C6.31211 2.16742 5.87939 1.73469 5.87939 1.2009C5.87939 0.667102 6.31211 0.234375 6.84591 0.234375C7.3797 0.234375 7.81243 0.667102 7.81243 1.2009C7.81243 1.73469 7.3797 2.16742 6.84591 2.16742Z" fill="#9550C9"/>
</g>
<defs>
<clipPath id="clip0_1110_8862">
<rect width="20" height="14" fill="white"/>
</clipPath>
</defs>
</svg>
