<svg width="20" height="14" viewBox="0 0 20 14" fill="none" xmlns="http://www.w3.org/2000/svg">
<g clip-path="url(#clip0_1110_8877)">
<path d="M18.6931 7.96625C19.2269 7.96625 19.6596 7.53352 19.6596 6.99972C19.6596 6.46593 19.2269 6.0332 18.6931 6.0332C18.1593 6.0332 17.7266 6.46593 17.7266 6.99972C17.7266 7.53352 18.1593 7.96625 18.6931 7.96625Z" fill="#9550C9"/>
<path d="M15.7946 7.96625C16.3284 7.96625 16.7612 7.53352 16.7612 6.99972C16.7612 6.46593 16.3284 6.0332 15.7946 6.0332C15.2609 6.0332 14.8281 6.46593 14.8281 6.99972C14.8281 7.53352 15.2609 7.96625 15.7946 7.96625Z" fill="#9550C9"/>
<path d="M15.7946 10.8661C16.3284 10.8661 16.7612 10.4334 16.7612 9.89962C16.7612 9.36582 16.3284 8.93311 15.7946 8.93311C15.2609 8.93311 14.8281 9.36582 14.8281 9.89962C14.8281 10.4334 15.2609 10.8661 15.7946 10.8661Z" fill="#9550C9"/>
<path d="M15.7946 5.06683C16.3284 5.06683 16.7612 4.63411 16.7612 4.10031C16.7612 3.56652 16.3284 3.13379 15.7946 3.13379C15.2609 3.13379 14.8281 3.56652 14.8281 4.10031C14.8281 4.63411 15.2609 5.06683 15.7946 5.06683Z" fill="#9550C9"/>
<path d="M12.8962 7.96625C13.43 7.96625 13.8627 7.53352 13.8627 6.99972C13.8627 6.46593 13.43 6.0332 12.8962 6.0332C12.3624 6.0332 11.9297 6.46593 11.9297 6.99972C11.9297 7.53352 12.3624 7.96625 12.8962 7.96625Z" fill="#9550C9"/>
<path d="M9.99777 7.96625C10.5316 7.96625 10.9643 7.53352 10.9643 6.99972C10.9643 6.46593 10.5316 6.0332 9.99777 6.0332C9.46398 6.0332 9.03125 6.46593 9.03125 6.99972C9.03125 7.53352 9.46398 7.96625 9.99777 7.96625Z" fill="#9550C9"/>
<path d="M7.09933 7.96625C7.63313 7.96625 8.06586 7.53352 8.06586 6.99972C8.06586 6.46593 7.63313 6.0332 7.09933 6.0332C6.56554 6.0332 6.13281 6.46593 6.13281 6.99972C6.13281 7.53352 6.56554 7.96625 7.09933 7.96625Z" fill="#9550C9"/>
<path d="M4.19308 7.96625C4.72688 7.96625 5.15961 7.53352 5.15961 6.99972C5.15961 6.46593 4.72688 6.0332 4.19308 6.0332C3.65929 6.0332 3.22656 6.46593 3.22656 6.99972C3.22656 7.53352 3.65929 7.96625 4.19308 7.96625Z" fill="#9550C9"/>
<path d="M1.29465 7.96625C1.82844 7.96625 2.26117 7.53352 2.26117 6.99972C2.26117 6.46593 1.82844 6.0332 1.29465 6.0332C0.760852 6.0332 0.328125 6.46593 0.328125 6.99972C0.328125 7.53352 0.760852 7.96625 1.29465 7.96625Z" fill="#9550C9"/>
<path d="M12.8962 13.7656C13.43 13.7656 13.8627 13.3328 13.8627 12.799C13.8627 12.2652 13.43 11.8325 12.8962 11.8325C12.3624 11.8325 11.9297 12.2652 11.9297 12.799C11.9297 13.3328 12.3624 13.7656 12.8962 13.7656Z" fill="#9550C9"/>
<path d="M12.8962 2.16742C13.43 2.16742 13.8627 1.73469 13.8627 1.2009C13.8627 0.667102 13.43 0.234375 12.8962 0.234375C12.3624 0.234375 11.9297 0.667102 11.9297 1.2009C11.9297 1.73469 12.3624 2.16742 12.8962 2.16742Z" fill="#9550C9"/>
</g>
<defs>
<clipPath id="clip0_1110_8877">
<rect width="20" height="14" fill="white"/>
</clipPath>
</defs>
</svg>
