<svg width="20" height="20" viewBox="0 0 20 20" fill="none" xmlns="http://www.w3.org/2000/svg">
<g clip-path="url(#clip0_1110_9578)">
<path d="M9.52482 16.254C9.17835 16.2539 8.84054 16.1459 8.55828 15.945C6.53598 14.5081 1.93657 10.6573 2.89843 5.95129C3.22325 4.36814 4.09722 2.95077 5.36591 1.94962C6.63458 0.948466 8.21631 0.427981 9.83158 0.480134C11.5686 0.556074 13.2091 1.30046 14.4101 2.5577C15.6111 3.81494 16.2797 5.48773 16.2761 7.22642C16.2761 11.3837 12.2241 14.7113 10.4822 15.9492C10.2024 16.1478 9.86787 16.2543 9.52482 16.254ZM9.5372 1.38054C8.18027 1.39753 6.87 1.87824 5.82403 2.7428C4.77807 3.60736 4.05935 4.80373 3.78729 6.13321C2.93205 10.3166 7.20633 13.8714 9.0839 15.2056C9.21103 15.2968 9.36332 15.3461 9.51971 15.3468C9.67615 15.3475 9.82882 15.2996 9.95682 15.2097C11.5838 14.0533 15.3689 10.9608 15.3689 7.22654C15.3721 5.72151 14.7934 4.27349 13.754 3.18511C12.7144 2.09673 11.2945 1.45222 9.79092 1.38629C9.70606 1.3826 9.62168 1.38054 9.5372 1.38054Z" fill="#807974"/>
<path d="M9.51928 10.7041C8.83149 10.7041 8.15915 10.5001 7.58727 10.118C7.01539 9.73594 6.56966 9.19279 6.30646 8.55735C6.04325 7.92191 5.97439 7.22269 6.10857 6.54812C6.24275 5.87355 6.57396 5.25391 7.06029 4.76757C7.54664 4.28123 8.16627 3.95003 8.84085 3.81584C9.51543 3.68166 10.2147 3.75053 10.8501 4.01373C11.4855 4.27694 12.0287 4.72266 12.4108 5.29454C12.7928 5.86642 12.9968 6.53876 12.9968 7.22655C12.9957 8.14852 12.629 9.03243 11.977 9.68432C11.3251 10.3363 10.4412 10.703 9.51928 10.7041ZM9.51928 4.65621C9.01091 4.65621 8.51397 4.80695 8.09127 5.08939C7.66858 5.37182 7.33913 5.77325 7.14459 6.24292C6.95005 6.7126 6.89914 7.22941 6.99832 7.72801C7.0975 8.22661 7.3423 8.6846 7.70177 9.04406C8.06125 9.40353 8.51924 9.64832 9.01784 9.74756C9.51643 9.8467 10.0332 9.79575 10.5029 9.60127C10.9726 9.4067 11.374 9.07725 11.6565 8.65456C11.9388 8.23187 12.0896 7.73492 12.0896 7.22655C12.0888 6.5451 11.8177 5.8918 11.3359 5.40994C10.854 4.92808 10.2008 4.65703 9.51928 4.65621Z" fill="#807974"/>
<path d="M16.7813 19.5237H2.26645C1.87991 19.5237 1.4998 19.425 1.16223 19.2367C0.824669 19.0483 0.540877 18.7768 0.337838 18.4479C0.134799 18.119 0.0192603 17.7436 0.00220698 17.3574C-0.0148463 16.9713 0.0671522 16.5872 0.240407 16.2416C0.255645 16.2113 0.27427 16.1828 0.295927 16.1567L2.3764 13.6408C2.41387 13.5934 2.4604 13.5541 2.51327 13.525C2.56614 13.4958 2.62429 13.4776 2.6843 13.4712C2.74431 13.465 2.80499 13.4706 2.86277 13.488C2.92056 13.5054 2.9743 13.5342 3.02082 13.5726C3.06735 13.6111 3.10575 13.6584 3.13375 13.7118C3.16176 13.7652 3.17883 13.8238 3.18393 13.8839C3.18905 13.944 3.18211 14.0046 3.16352 14.062C3.14494 14.1194 3.11509 14.1726 3.07571 14.2183L1.03014 16.6924C0.935448 16.8994 0.894299 17.1271 0.910472 17.3541C0.926645 17.5812 0.999619 17.8007 1.1227 17.9922C1.24578 18.1837 1.41501 18.3413 1.61486 18.4504C1.8147 18.5595 2.03876 18.6167 2.26645 18.6166H16.7813C17.009 18.6167 17.2331 18.5595 17.433 18.4505C17.6329 18.3413 17.8021 18.1838 17.9252 17.9922C18.0483 17.8007 18.1213 17.5812 18.1375 17.3541C18.1536 17.127 18.1125 16.8994 18.0178 16.6924L15.9663 14.2128C15.9283 14.1669 15.8997 14.1139 15.8821 14.057C15.8646 14.0001 15.8584 13.9402 15.864 13.881C15.8695 13.8216 15.8868 13.764 15.9146 13.7113C15.9424 13.6587 15.9804 13.612 16.0262 13.5739C16.0721 13.5359 16.125 13.5073 16.1819 13.4898C16.2389 13.4722 16.2987 13.4661 16.358 13.4716C16.4173 13.4771 16.475 13.4944 16.5276 13.5222C16.5803 13.5501 16.627 13.588 16.665 13.6339L18.7515 16.1558C18.7732 16.1822 18.792 16.211 18.8073 16.2415C18.9807 16.5871 19.0627 16.9711 19.0456 17.3573C19.0286 17.7435 18.913 18.1189 18.71 18.4478C18.507 18.7768 18.2232 19.0483 17.8856 19.2366C17.5481 19.425 17.1679 19.5238 16.7813 19.5237Z" fill="#807974"/>
</g>
<defs>
<clipPath id="clip0_1110_9578">
<rect width="19.0476" height="20" fill="white"/>
</clipPath>
</defs>
</svg>
