<svg width="12" height="12" viewBox="0 0 12 12" fill="none" xmlns="http://www.w3.org/2000/svg">
<g clip-path="url(#clip0_1110_774)">
<path d="M1.58242 7.58232C2.45637 7.58232 3.16484 6.87385 3.16484 5.9999C3.16484 5.12595 2.45637 4.41748 1.58242 4.41748C0.708474 4.41748 0 5.12595 0 5.9999C0 6.87385 0.708474 7.58232 1.58242 7.58232Z" fill="#F3F3F3"/>
<path d="M5.54165 3.62627C6.4156 3.62627 7.12407 2.91779 7.12407 2.04385C7.12407 1.1699 6.4156 0.461426 5.54165 0.461426C4.6677 0.461426 3.95923 1.1699 3.95923 2.04385C3.95923 2.91779 4.6677 3.62627 5.54165 3.62627Z" fill="#F3F3F3"/>
<path d="M5.54165 7.58232C6.4156 7.58232 7.12407 6.87385 7.12407 5.9999C7.12407 5.12595 6.4156 4.41748 5.54165 4.41748C4.6677 4.41748 3.95923 5.12595 3.95923 5.9999C3.95923 6.87385 4.6677 7.58232 5.54165 7.58232Z" fill="#F3F3F3"/>
<path d="M5.54165 11.5384C6.4156 11.5384 7.12407 10.8299 7.12407 9.95596C7.12407 9.08201 6.4156 8.37354 5.54165 8.37354C4.6677 8.37354 3.95923 9.08201 3.95923 9.95596C3.95923 10.8299 4.6677 11.5384 5.54165 11.5384Z" fill="#F3F3F3"/>
<path d="M9.49355 7.58232C10.3675 7.58232 11.076 6.87385 11.076 5.9999C11.076 5.12595 10.3675 4.41748 9.49355 4.41748C8.61961 4.41748 7.91113 5.12595 7.91113 5.9999C7.91113 6.87385 8.61961 7.58232 9.49355 7.58232Z" fill="#F3F3F3"/>
</g>
<defs>
<clipPath id="clip0_1110_774">
<rect width="11.0769" height="12" fill="white"/>
</clipPath>
</defs>
</svg>
