<svg width="25" height="25" viewBox="0 0 25 25" fill="none" xmlns="http://www.w3.org/2000/svg">
<path d="M22.6245 13.625C23.2458 13.625 23.7495 13.1213 23.7495 12.5C23.7495 11.8787 23.2458 11.375 22.6245 11.375C22.0032 11.375 21.4995 11.8787 21.4995 12.5C21.4995 13.1213 22.0032 13.625 22.6245 13.625Z" fill="#F3F3F3"/>
<path d="M19.2441 13.625C19.8654 13.625 20.3691 13.1213 20.3691 12.5C20.3691 11.8787 19.8654 11.375 19.2441 11.375C18.6228 11.375 18.1191 11.8787 18.1191 12.5C18.1191 13.1213 18.6228 13.625 19.2441 13.625Z" fill="#F3F3F3"/>
<path d="M19.2441 16.9998C19.8654 16.9998 20.3691 16.4961 20.3691 15.8748C20.3691 15.2535 19.8654 14.7498 19.2441 14.7498C18.6228 14.7498 18.1191 15.2535 18.1191 15.8748C18.1191 16.4961 18.6228 16.9998 19.2441 16.9998Z" fill="#F3F3F3"/>
<path d="M19.2441 10.2502C19.8654 10.2502 20.3691 9.74658 20.3691 9.12524C20.3691 8.50393 19.8654 8.00024 19.2441 8.00024C18.6228 8.00024 18.1191 8.50393 18.1191 9.12524C18.1191 9.74658 18.6228 10.2502 19.2441 10.2502Z" fill="#F3F3F3"/>
<path d="M15.8711 13.625C16.4924 13.625 16.9961 13.1213 16.9961 12.5C16.9961 11.8787 16.4924 11.375 15.8711 11.375C15.2498 11.375 14.7461 11.8787 14.7461 12.5C14.7461 13.1213 15.2498 13.625 15.8711 13.625Z" fill="#F3F3F3"/>
<path d="M12.4983 13.625C13.1196 13.625 13.6233 13.1213 13.6233 12.5C13.6233 11.8787 13.1196 11.375 12.4983 11.375C11.877 11.375 11.3733 11.8787 11.3733 12.5C11.3733 13.1213 11.877 13.625 12.4983 13.625Z" fill="#F3F3F3"/>
<path d="M9.12524 13.625C9.74658 13.625 10.2502 13.1213 10.2502 12.5C10.2502 11.8787 9.74658 11.375 9.12524 11.375C8.50393 11.375 8.00024 11.8787 8.00024 12.5C8.00024 13.1213 8.50393 13.625 9.12524 13.625Z" fill="#F3F3F3"/>
<path d="M5.74487 13.625C6.36619 13.625 6.86987 13.1213 6.86987 12.5C6.86987 11.8787 6.36619 11.375 5.74487 11.375C5.12355 11.375 4.61987 11.8787 4.61987 12.5C4.61987 13.1213 5.12355 13.625 5.74487 13.625Z" fill="#F3F3F3"/>
<path d="M2.37207 13.625C2.99339 13.625 3.49707 13.1213 3.49707 12.5C3.49707 11.8787 2.99339 11.375 2.37207 11.375C1.75074 11.375 1.24707 11.8787 1.24707 12.5C1.24707 13.1213 1.75074 13.625 2.37207 13.625Z" fill="#F3F3F3"/>
<path d="M15.8711 20.3745C16.4924 20.3745 16.9961 19.8709 16.9961 19.2495C16.9961 18.6282 16.4924 18.1245 15.8711 18.1245C15.2498 18.1245 14.7461 18.6282 14.7461 19.2495C14.7461 19.8709 15.2498 20.3745 15.8711 20.3745Z" fill="#F3F3F3"/>
<path d="M15.8711 6.87549C16.4924 6.87549 16.9961 6.37181 16.9961 5.75049C16.9961 5.12916 16.4924 4.62549 15.8711 4.62549C15.2498 4.62549 14.7461 5.12916 14.7461 5.75049C14.7461 6.37181 15.2498 6.87549 15.8711 6.87549Z" fill="#F3F3F3"/>
</svg>
