<svg width="25" height="25" viewBox="0 0 25 25" fill="none" xmlns="http://www.w3.org/2000/svg">
<path d="M2.37549 13.625C1.75417 13.625 1.25049 13.1213 1.25049 12.5C1.25049 11.8787 1.75417 11.375 2.37549 11.375C2.99682 11.375 3.50049 11.8787 3.50049 12.5C3.50049 13.1213 2.99682 13.625 2.37549 13.625Z" fill="#F3F3F3"/>
<path d="M5.7561 13.625C5.13479 13.625 4.6311 13.1213 4.6311 12.5C4.6311 11.8787 5.13479 11.375 5.7561 11.375C6.37742 11.375 6.8811 11.8787 6.8811 12.5C6.8811 13.1213 6.37742 13.625 5.7561 13.625Z" fill="#F3F3F3"/>
<path d="M5.7561 16.9998C5.13479 16.9998 4.6311 16.4961 4.6311 15.8748C4.6311 15.2535 5.13479 14.7498 5.7561 14.7498C6.37742 14.7498 6.8811 15.2535 6.8811 15.8748C6.8811 16.4961 6.37742 16.9998 5.7561 16.9998Z" fill="#F3F3F3"/>
<path d="M5.7561 10.2502C5.13479 10.2502 4.6311 9.74658 4.6311 9.12524C4.6311 8.50393 5.13479 8.00024 5.7561 8.00024C6.37742 8.00024 6.8811 8.50393 6.8811 9.12524C6.8811 9.74658 6.37742 10.2502 5.7561 10.2502Z" fill="#F3F3F3"/>
<path d="M9.12891 13.625C8.50759 13.625 8.00391 13.1213 8.00391 12.5C8.00391 11.8787 8.50759 11.375 9.12891 11.375C9.75019 11.375 10.2539 11.8787 10.2539 12.5C10.2539 13.1213 9.75019 13.625 9.12891 13.625Z" fill="#F3F3F3"/>
<path d="M12.5017 13.625C11.8804 13.625 11.3767 13.1213 11.3767 12.5C11.3767 11.8787 11.8804 11.375 12.5017 11.375C13.123 11.375 13.6267 11.8787 13.6267 12.5C13.6267 13.1213 13.123 13.625 12.5017 13.625Z" fill="#F3F3F3"/>
<path d="M15.8748 13.625C15.2534 13.625 14.7498 13.1213 14.7498 12.5C14.7498 11.8787 15.2534 11.375 15.8748 11.375C16.4961 11.375 16.9998 11.8787 16.9998 12.5C16.9998 13.1213 16.4961 13.625 15.8748 13.625Z" fill="#F3F3F3"/>
<path d="M19.2551 13.625C18.6338 13.625 18.1301 13.1213 18.1301 12.5C18.1301 11.8787 18.6338 11.375 19.2551 11.375C19.8765 11.375 20.3801 11.8787 20.3801 12.5C20.3801 13.1213 19.8765 13.625 19.2551 13.625Z" fill="#F3F3F3"/>
<path d="M22.6279 13.625C22.0067 13.625 21.5029 13.1213 21.5029 12.5C21.5029 11.8787 22.0067 11.375 22.6279 11.375C23.2493 11.375 23.7529 11.8787 23.7529 12.5C23.7529 13.1213 23.2493 13.625 22.6279 13.625Z" fill="#F3F3F3"/>
<path d="M9.12891 20.3745C8.50759 20.3745 8.00391 19.8709 8.00391 19.2495C8.00391 18.6282 8.50759 18.1245 9.12891 18.1245C9.75019 18.1245 10.2539 18.6282 10.2539 19.2495C10.2539 19.8709 9.75019 20.3745 9.12891 20.3745Z" fill="#F3F3F3"/>
<path d="M9.12891 6.87549C8.50759 6.87549 8.00391 6.37181 8.00391 5.75049C8.00391 5.12916 8.50759 4.62549 9.12891 4.62549C9.75019 4.62549 10.2539 5.12916 10.2539 5.75049C10.2539 6.37181 9.75019 6.87549 9.12891 6.87549Z" fill="#F3F3F3"/>
</svg>
