<svg width="12" height="15" viewBox="0 0 12 15" fill="none" xmlns="http://www.w3.org/2000/svg">
<g clip-path="url(#clip0_1110_862)">
<mask id="mask0_1110_862" style="mask-type:luminance" maskUnits="userSpaceOnUse" x="0" y="0" width="12" height="15">
<path d="M11.7857 0H0V15H11.7857V0Z" fill="white"/>
</mask>
<g mask="url(#mask0_1110_862)">
<mask id="mask1_1110_862" style="mask-type:luminance" maskUnits="userSpaceOnUse" x="0" y="0" width="12" height="15">
<path d="M11.7857 0H0V15H11.7857V0Z" fill="white"/>
</mask>
<g mask="url(#mask1_1110_862)">
<mask id="mask2_1110_862" style="mask-type:luminance" maskUnits="userSpaceOnUse" x="0" y="0" width="12" height="15">
<path d="M11.2475 0H0.533203V15H11.2475V0Z" fill="white"/>
</mask>
<g mask="url(#mask2_1110_862)">
<path d="M4.40207 2.02848V12.9723C4.40207 13.3682 4.24483 13.7477 3.96497 14.0275C3.6851 14.3075 3.30551 14.4647 2.90972 14.4647H2.41227C2.01647 14.4647 1.63689 14.3075 1.35702 14.0275C1.07715 13.7477 0.919922 13.3682 0.919922 12.9723V2.02848C0.919922 1.63268 1.07715 1.2531 1.35702 0.97323C1.63689 0.693362 2.01647 0.536133 2.41227 0.536133H2.90972C3.30551 0.536133 3.6851 0.693362 3.96497 0.97323C4.24483 1.2531 4.40207 1.63268 4.40207 2.02848ZM9.37658 0.536133H8.8791C8.48333 0.536133 8.10375 0.693362 7.82385 0.97323C7.54395 1.2531 7.38677 1.63268 7.38677 2.02848V12.9723C7.38677 13.3682 7.54395 13.7477 7.82385 14.0275C8.10375 14.3075 8.48333 14.4647 8.8791 14.4647H9.37658C9.77235 14.4647 10.1519 14.3075 10.4318 14.0275C10.7117 13.7477 10.8689 13.3682 10.8689 12.9723V2.02848C10.8689 1.63268 10.7117 1.2531 10.4318 0.97323C10.1519 0.693362 9.77235 0.536133 9.37658 0.536133Z" fill="white"/>
</g>
</g>
</g>
</g>
<defs>
<clipPath id="clip0_1110_862">
<rect width="12" height="15" fill="white"/>
</clipPath>
</defs>
</svg>
