<svg width="55" height="16" viewBox="0 0 55 16" fill="none" xmlns="http://www.w3.org/2000/svg">
<path d="M2.02565 15.822C0.675216 15.822 0 15.6736 0 15.3769V0.956885C0 0.452481 0.230019 0.200278 0.690056 0.200278H4.6078C6.8041 0.200278 8.38456 0.652758 9.34915 1.55772C10.3286 2.46268 10.8183 3.77561 10.8183 5.49652C10.8183 6.92072 10.3583 8.22624 9.43819 9.41307C8.97815 10.0065 8.30294 10.4812 7.41254 10.8373C6.52215 11.1933 5.48335 11.3713 4.29616 11.3713V15.3547C4.29616 15.5327 4.0142 15.6588 3.45028 15.733C2.9012 15.7923 2.42633 15.822 2.02565 15.822ZM4.29616 4.07232V7.58832H4.58554C5.10493 7.58832 5.54271 7.42513 5.89887 7.09875C6.25503 6.77237 6.43311 6.31247 6.43311 5.71905C6.43311 5.12564 6.30697 4.70283 6.05469 4.45063C5.81725 4.19842 5.38689 4.07232 4.76362 4.07232H4.29616Z" fill="#151216"/>
<path d="M27.2531 15.7997C25.9323 15.7997 25.2719 15.6514 25.2719 15.3547L24.8045 6.43115L22.0888 15.4659C22.0294 15.6439 21.5248 15.733 20.5751 15.733C19.6253 15.733 19.1356 15.6514 19.1059 15.4882L16.3012 6.34214L15.9896 15.2211C15.9747 15.4437 15.6928 15.5994 15.1437 15.6885C14.5946 15.7626 14.1346 15.7997 13.7636 15.7997C13.4074 15.7997 13.0587 15.7775 12.7173 15.733C12.005 15.6291 11.6563 15.4437 11.6711 15.1766L12.1831 0.7121C12.1831 0.35605 13.0883 0.178025 14.8988 0.178025C15.4331 0.178025 16.086 0.222532 16.8577 0.311544C17.6294 0.385721 18.0597 0.541493 18.1488 0.77886L20.6419 7.7886L22.8233 0.756607C22.9569 0.370886 23.9809 0.178025 25.8952 0.178025C26.4443 0.178025 27.0972 0.222532 27.8541 0.311544C28.6257 0.385721 29.0116 0.526657 29.0116 0.734353L29.6571 15.3324C29.6571 15.4956 29.3677 15.6143 28.789 15.6885C28.2102 15.7626 27.6983 15.7997 27.2531 15.7997Z" fill="#151216"/>
<path d="M41.215 15.822C39.924 15.822 39.2265 15.6143 39.1226 15.1989L38.388 12.3282H34.8487L34.2032 15.0876C34.1141 15.5475 33.4018 15.7775 32.0662 15.7775C31.3539 15.7775 30.8271 15.7404 30.4858 15.6662C30.1445 15.5772 29.9738 15.5104 29.9738 15.4659L33.9138 0.400556C33.9138 0.281873 34.9303 0.222531 36.9634 0.222531C38.9965 0.222531 40.013 0.281873 40.013 0.400556L43.864 15.4882C43.864 15.592 43.5227 15.6736 42.84 15.733C42.1574 15.7923 41.6157 15.822 41.215 15.822ZM35.4052 9.50209H37.7425L36.7408 4.89569H36.6072L35.4052 9.50209Z" fill="#151216"/>
<path d="M50.5925 0C51.6759 0 52.6256 0.155772 53.4418 0.467316C54.2728 0.764024 54.6884 1.172 54.6884 1.69124C54.6884 2.21048 54.488 2.85582 54.0873 3.62726C53.7015 4.38387 53.375 4.76217 53.1079 4.76217C53.0337 4.76217 52.9447 4.72508 52.8408 4.65091C52.7518 4.56189 52.5292 4.47288 52.173 4.38387C51.8317 4.28002 51.5349 4.22809 51.2826 4.22809C50.4219 4.22809 49.7244 4.53222 49.1902 5.14047C48.6708 5.74873 48.4111 6.68336 48.4111 7.94437C48.4111 9.19054 48.6782 10.1178 49.2124 10.726C49.7615 11.3343 50.4516 11.6384 51.2826 11.6384C51.6239 11.6384 52.0023 11.5939 52.4179 11.5049C52.8482 11.401 53.1524 11.2601 53.3305 11.0821C53.3602 11.0524 53.4195 11.0376 53.5086 11.0376C53.5976 11.0376 53.7609 11.2082 53.9983 11.5494C54.2506 11.8758 54.4806 12.3134 54.6884 12.8623C54.8961 13.3964 55 13.8118 55 14.1085C55 14.6871 54.5548 15.147 53.6644 15.4882C52.774 15.8294 51.7204 16 50.5035 16C48.5446 16 46.9345 15.3102 45.6731 13.9305C44.4117 12.5508 43.781 10.6073 43.781 8.10014C43.781 5.57812 44.4266 3.59759 45.7176 2.15855C47.0235 0.719518 48.6485 0 50.5925 0Z" fill="#151216"/>
</svg>
