<svg width="2" height="4" viewBox="0 0 2 4" fill="none" xmlns="http://www.w3.org/2000/svg">
<path d="M0.93399 3.08699C1.18099 3.08699 1.41899 2.92499 1.59399 2.63499C1.76899 2.34599 1.868 1.95299 1.868 1.54399C1.868 1.34099 1.844 1.13999 1.797 0.952988C1.75 0.764988 1.68099 0.594996 1.59499 0.451996C1.50799 0.307996 1.405 0.194989 1.291 0.116989C1.178 0.0399891 1.05599 0 0.93399 0C0.68599 0 0.447995 0.162996 0.272995 0.451996C0.097995 0.741996 0 1.13399 0 1.54399C0 1.95299 0.0979868 2.34499 0.273987 2.63499C0.448987 2.92399 0.68599 3.08699 0.93399 3.08699Z" fill="#2A1604" fill-opacity="0.5"/>
</svg>
