<svg width="2" height="4" viewBox="0 0 2 4" fill="none" xmlns="http://www.w3.org/2000/svg">
<path d="M0.933998 3.087C1.057 3.088 1.179 3.04799 1.292 2.96999C1.405 2.89299 1.509 2.77899 1.595 2.63599C1.682 2.49299 1.751 2.32199 1.798 2.13499C1.845 1.94699 1.869 1.747 1.869 1.544C1.869 1.135 1.77 0.741996 1.595 0.451996C1.42 0.162996 1.182 0 0.933998 0C0.686998 0.001 0.449002 0.163995 0.274002 0.452995C0.0990021 0.741995 0.001 1.135 0 1.544C0 1.953 0.0990021 2.34599 0.274002 2.63499C0.449002 2.92499 0.686998 3.087 0.933998 3.087Z" fill="#2A1604" fill-opacity="0.5"/>
</svg>
