<svg width="2" height="4" viewBox="0 0 2 4" fill="none" xmlns="http://www.w3.org/2000/svg">
<path d="M0.934105 3.087C1.0568 3.088 1.1783 3.04799 1.2917 2.96999C1.4051 2.89299 1.5082 2.77899 1.595 2.63599C1.6817 2.49299 1.7505 2.32199 1.7974 2.13499C1.8443 1.94699 1.8684 1.747 1.8682 1.544C1.8682 1.135 1.7698 0.741996 1.5946 0.451996C1.4194 0.162996 1.1818 0 0.934105 0C0.686405 0.001 0.449003 0.163995 0.273903 0.452995C0.0988029 0.741995 0.0003 1.135 0 1.544C0 1.953 0.0984053 2.34599 0.273605 2.63499C0.448805 2.92499 0.686405 3.087 0.934105 3.087Z" fill="#2A1604" fill-opacity="0.5"/>
</svg>
