<svg width="2" height="4" viewBox="0 0 2 4" fill="none" xmlns="http://www.w3.org/2000/svg">
<path d="M0.934998 3.087C1.183 3.087 1.42101 2.92499 1.59601 2.63499C1.77101 2.34599 1.86899 1.953 1.86899 1.544C1.86899 1.135 1.771 0.741995 1.595 0.452995C1.42 0.163995 1.183 0.001 0.934998 0C0.686998 0 0.449987 0.162996 0.273987 0.451996C0.0989868 0.741996 0 1.134 0 1.544C0 1.747 0.0240144 1.94799 0.0710144 2.13499C0.118014 2.32199 0.186987 2.49299 0.273987 2.63599C0.360987 2.77899 0.463996 2.89299 0.576996 2.97099C0.690996 3.04799 0.812998 3.088 0.934998 3.087Z" fill="#2A1604" fill-opacity="0.5"/>
</svg>
