<svg width="2" height="4" viewBox="0 0 2 4" fill="none" xmlns="http://www.w3.org/2000/svg">
<path d="M0.933998 3.093C1.182 3.092 1.419 2.93 1.595 2.64C1.77 2.351 1.868 1.95801 1.868 1.54901C1.869 1.34601 1.845 1.145 1.798 0.957001C1.752 0.769001 1.683 0.59801 1.596 0.45401C1.509 0.31001 1.406 0.196011 1.293 0.118011C1.179 0.0400115 1.057 0 0.933998 0C0.811998 0 0.690003 0.0390044 0.577003 0.117004C0.463003 0.194004 0.360002 0.308011 0.274002 0.452011C0.187002 0.595011 0.117999 0.765003 0.0709991 0.953003C0.0239991 1.14 0 1.34101 0 1.54401C0 1.74701 0.0239997 1.948 0.0699997 2.136C0.117 2.324 0.186003 2.49501 0.273003 2.63901C0.359003 2.78301 0.463004 2.89701 0.576004 2.97501C0.690004 3.05301 0.810998 3.093 0.933998 3.093Z" fill="#2A1604" fill-opacity="0.5"/>
</svg>
