<svg width="108" height="52" viewBox="0 0 108 52" fill="none" xmlns="http://www.w3.org/2000/svg">
<path d="M107.084 47.6604C107.827 40.6058 104.967 32.8469 99.036 25.8745C95.7669 22.0305 91.6222 18.4718 86.7342 15.307C81.507 11.921 75.4543 9.00153 68.7669 6.63371C59.762 3.42307 50.3924 1.34652 40.8743 0.451917C32.0059 -0.393812 23.0642 -0.0517168 14.2869 1.46936C1.01394 3.82313 -10.7596 8.95938 -20.3853 16.3887L-17.4938 17.2178C-8.18168 10.3259 3.0513 5.55572 15.6541 3.35133C24.2005 1.89533 32.9017 1.58299 41.5303 2.42341C50.7064 3.29182 59.7378 5.29605 68.4191 8.39072C74.7481 10.6406 80.4569 13.3957 85.3608 16.5776C89.8926 19.5189 93.7329 22.8183 96.7584 26.38C102.279 32.8705 104.945 40.1236 104.258 46.7438C104.087 48.4679 103.672 50.1587 103.026 51.7661L105.911 52.5932C106.227 51.7646 106.486 50.915 106.685 50.0503C106.866 49.2624 106.999 48.4643 107.084 47.6604Z" fill="url(#paint0_linear_1110_9716)"/>
<defs>
<linearGradient id="paint0_linear_1110_9716" x1="-20.1993" y1="16.4684" x2="106.479" y2="52.7926" gradientUnits="userSpaceOnUse">
<stop stop-color="#9550C9"/>
<stop offset="0.475962" stop-color="white" stop-opacity="0"/>
<stop offset="1" stop-color="#9550C9"/>
</linearGradient>
</defs>
</svg>
