<svg width="2" height="4" viewBox="0 0 2 4" fill="none" xmlns="http://www.w3.org/2000/svg">
<path d="M0.93399 3.087C1.05699 3.088 1.17799 3.04799 1.29199 2.96999C1.40499 2.89299 1.508 2.77899 1.595 2.63599C1.682 2.49299 1.75 2.32199 1.797 2.13499C1.844 1.94699 1.86801 1.747 1.86801 1.544C1.86801 1.135 1.77 0.741996 1.595 0.451996C1.419 0.162996 1.18199 0 0.93399 0C0.68599 0.001 0.449017 0.163995 0.274017 0.452995C0.0990173 0.741995 0 1.135 0 1.544C0 1.953 0.0980103 2.34599 0.27301 2.63499C0.44901 2.92499 0.68599 3.087 0.93399 3.087Z" fill="#2A1604" fill-opacity="0.5"/>
</svg>
